<svg width="86" height="690" viewBox="0 0 86 690" fill="none" xmlns="http://www.w3.org/2000/svg">
<path d="M42 101L0.5 180.5L44.5 190L42 101Z" fill="#3DBED2" fill-opacity="0.2"/>
<path d="M35 19L0 77L57.5 50L35 19Z" fill="#38B5C9" fill-opacity="0.2"/>
<path d="M74.5 281L0.5 229.5L41.5 323.5L74.5 281Z" fill="#2DBDD3" fill-opacity="0.2"/>
<path d="M49.5 374.5L0.5 402.5V459.5L49.5 374.5Z" fill="#2DB0C5" fill-opacity="0.2"/>
<path d="M30 575.5L58.5 490.5L0.5 531.5L30 575.5Z" fill="#41C7DC" fill-opacity="0.2"/>
<path d="M44.5 433.5L0.5 459.5L58.5 490.5L44.5 433.5Z" fill="#4AC1D3" fill-opacity="0.2"/>
<path d="M39.5 670L0.5 650.5V689L39.5 670Z" fill="#41D0E6" fill-opacity="0.2"/>
<path d="M0 1L35 19L85 1H0Z" fill="#4DC1D3" fill-opacity="0.2"/>
<path fill-rule="evenodd" clip-rule="evenodd" d="M0 1L35 19L0 77L0 1ZM0.5 180.5V122.5L0 77L57.5 50L42 101L0.5 180.5ZM0.5 229.5V180.5L44.5 190L74.5 281L0.5 229.5ZM49.5 374.5L0.5 402.5V341V229.5L41.5 323.5L49.5 374.5ZM0.5 459.5L49.5 374.5L44.5 433.5L0.5 459.5ZM0.5 531.5V459.5L58.5 490.5L0.5 531.5ZM39.5 670L0.5 650.5V598V531.5L30 575.5L39.5 670Z" fill="#9EF2FF" fill-opacity="0.2"/>
<path d="M39.5 670L0.5 689H53.5L39.5 670Z" fill="#9EF2FF" fill-opacity="0.2"/>
<path d="M0 1L0 0.5H-0.5V1H0ZM0 77H-0.50003L-0.49997 77.0055L0 77ZM57.5 50L57.9784 50.1454L58.0507 49.9075L57.9047 49.7063L57.5 50ZM74.5 281L74.8949 281.307L75.0582 281.096L74.9749 280.843L74.5 281ZM49.5 374.5L49.9982 374.542L50.0033 374.482L49.994 374.423L49.5 374.5ZM58.5 490.5L58.9741 490.659L59.0201 490.522L58.9856 490.381L58.5 490.5ZM0.5 689H0L0 689.5H0.5V689ZM53.5 689V689.5H54.4895L53.9025 688.703L53.5 689ZM85 1L85.1694 1.47044L85 0.5V1ZM38 230.75L38.4046 230.456L38.4007 230.451L38 230.75ZM-0.228674 1.44464L34.7713 19.4446L35.2287 18.5554L0.228674 0.555356L-0.228674 1.44464ZM34.5719 18.7417L-0.428094 76.7417L0.428094 77.2583L35.4281 19.2583L34.5719 18.7417ZM0.212519 77.4526L57.7125 50.4526L57.2875 49.5474L-0.212519 76.5474L0.212519 77.4526ZM57.1069 49.691L0.106935 122.191L0.893065 122.809L57.8931 50.309L57.1069 49.691ZM0.730002 122.944L42.23 101.444L41.77 100.556L0.269998 122.056L0.730002 122.944ZM41.5568 100.769L0.0567573 180.269L0.943243 180.731L42.4432 101.231L41.5568 100.769ZM0.394477 180.989L44.3945 190.489L44.6055 189.511L0.605523 180.011L0.394477 180.989ZM44.0251 190.157L74.0251 281.157L74.9749 280.843L44.9749 189.843L44.0251 190.157ZM74.7856 280.59L0.785613 229.09L0.214387 229.91L74.2144 281.41L74.7856 280.59ZM0.0416978 229.7L41.0417 323.7L41.9583 323.3L0.958302 229.3L0.0416978 229.7ZM41.3037 323.04L0.303717 340.54L0.696283 341.46L41.6963 323.96L41.3037 323.04ZM0 341L0 402.5H1V341H0ZM0.748069 402.934L49.7481 374.934L49.2519 374.066L0.251931 402.066L0.748069 402.934ZM49.0668 374.25L0.0668224 459.25L0.933178 459.75L49.9332 374.75L49.0668 374.25ZM0.754365 459.93L44.7544 433.93L44.2456 433.07L0.245635 459.07L0.754365 459.93ZM44.0144 433.619L58.0144 490.619L58.9856 490.381L44.9856 433.381L44.0144 433.619ZM58.0259 490.341L29.5259 575.341L30.4741 575.659L58.9741 490.659L58.0259 490.341ZM29.6968 575.102L0.196775 597.602L0.803225 598.398L30.3032 575.898L29.6968 575.102ZM0 598L0 650.5H1V598H0ZM0.276393 650.947L39.2764 670.447L39.7236 669.553L0.723607 650.053L0.276393 650.947ZM39.281 669.55L0.281015 688.55L0.718985 689.45L39.719 670.45L39.281 669.55ZM0.5 689.5H53.5V688.5H0.5V689.5ZM42.4784 101.145L57.9784 50.1454L57.0216 49.8546L41.5216 100.855L42.4784 101.145ZM-0.5 1V77H0.5V1H-0.5ZM34.5953 19.2937L57.0953 50.2937L57.9047 49.7063L35.4047 18.7063L34.5953 19.2937ZM0.99997 122.495L0.49997 76.9945L-0.49997 77.0055L3.01869e-05 122.505L0.99997 122.495ZM0 122.5L0 180.5H1V122.5H0ZM44.9998 189.986L42.4998 100.986L41.5002 101.014L44.0002 190.014L44.9998 189.986ZM1 229.5V180.5H0L0 229.5H1ZM41.8949 323.807L74.8949 281.307L74.1051 280.693L41.1051 323.193L41.8949 323.807ZM1 341V229.5H0L0 341H1ZM0.943792 402.73L41.9438 323.73L41.0562 323.27L0.0562078 402.27L0.943792 402.73ZM49.994 374.423L41.994 323.423L41.006 323.577L49.006 374.577L49.994 374.423ZM1 459.5V402.5H0L0 459.5H1ZM44.9982 433.542L49.9982 374.542L49.0018 374.458L44.0018 433.458L44.9982 433.542ZM0.264311 459.941L58.2643 490.941L58.7357 490.059L0.735689 459.059L0.264311 459.941ZM0.788618 531.908L58.7886 490.908L58.2114 490.092L0.211382 531.092L0.788618 531.908ZM0.0847023 531.778L29.5847 575.778L30.4153 575.222L0.915298 531.222L0.0847023 531.778ZM1 531.5V459.5H0L0 531.5H1ZM1 598V531.5H0L0 598H1ZM0.9653 650.683L30.4653 575.683L29.5347 575.317L0.0346997 650.317L0.9653 650.683ZM39.9975 669.95L30.4975 575.45L29.5025 575.55L39.0025 670.05L39.9975 669.95ZM1 689V650.5H0L0 689H1ZM53.9025 688.703L39.9025 669.703L39.0975 670.297L53.0975 689.297L53.9025 688.703ZM0 1.5H85V0.5H0L0 1.5ZM84.8306 0.529556L34.8306 18.5296L35.1694 19.4704L85.1694 1.47044L84.8306 0.529556ZM74.9045 280.706L38.4045 230.456L37.5955 231.044L74.0955 281.294L74.9045 280.706ZM38.4007 230.451L0.900717 180.201L0.0992834 180.799L37.5993 231.049L38.4007 230.451Z" fill="#429FAD"/>
</svg>
