<svg width="244" height="183" viewBox="0 0 244 183" fill="none" xmlns="http://www.w3.org/2000/svg">
<path d="M27 168L71.0476 112M27 168V70M27 168H167.952M71.0476 112V14M71.0476 112H212M27 70L71.0476 14M27 70H167.952M71.0476 14H212M212 112V14M212 112L167.952 168M212 14L167.952 70M167.952 168V70" stroke="#646C6D"/>
<path d="M0.57552 183C0.468853 183 0.378186 182.968 0.30352 182.904C0.23952 182.83 0.20752 182.739 0.20752 182.632V175.048C0.20752 174.942 0.23952 174.856 0.30352 174.792C0.378186 174.718 0.468853 174.68 0.57552 174.68H1.29552C1.40219 174.68 1.48752 174.718 1.55152 174.792C1.62619 174.856 1.66352 174.942 1.66352 175.048V175.608C1.90885 175.278 2.21819 175.016 2.59152 174.824C2.96485 174.622 3.41285 174.52 3.93552 174.52C5.14085 174.51 5.99419 175 6.49552 175.992C6.74085 175.544 7.09819 175.187 7.56752 174.92C8.03685 174.654 8.57019 174.52 9.16752 174.52C9.72219 174.52 10.2235 174.648 10.6715 174.904C11.1302 175.16 11.4875 175.55 11.7435 176.072C12.0102 176.584 12.1435 177.23 12.1435 178.008V182.632C12.1435 182.739 12.1062 182.83 12.0315 182.904C11.9675 182.968 11.8822 183 11.7755 183H11.0235C10.9169 183 10.8262 182.968 10.7515 182.904C10.6875 182.83 10.6555 182.739 10.6555 182.632V178.152C10.6555 177.555 10.5702 177.086 10.3995 176.744C10.2289 176.403 9.99952 176.163 9.71152 176.024C9.42352 175.886 9.10885 175.816 8.76752 175.816C8.49019 175.816 8.20752 175.886 7.91952 176.024C7.63152 176.163 7.39152 176.403 7.19952 176.744C7.01819 177.086 6.92752 177.555 6.92752 178.152V182.632C6.92752 182.739 6.89019 182.83 6.81552 182.904C6.75152 182.968 6.66619 183 6.55952 183H5.80752C5.70085 183 5.61019 182.968 5.53552 182.904C5.47152 182.83 5.43952 182.739 5.43952 182.632V178.152C5.43952 177.555 5.34885 177.086 5.16752 176.744C4.98619 176.403 4.75152 176.163 4.46352 176.024C4.17552 175.886 3.87152 175.816 3.55152 175.816C3.27419 175.816 2.99152 175.886 2.70352 176.024C2.41552 176.163 2.17552 176.403 1.98352 176.744C1.80219 177.086 1.71152 177.55 1.71152 178.136V182.632C1.71152 182.739 1.67419 182.83 1.59952 182.904C1.53552 182.968 1.45019 183 1.34352 183H0.57552Z" fill="#646C6D"/>
<path d="M14.7943 183C14.6876 183 14.5969 182.968 14.5223 182.904C14.4583 182.83 14.4263 182.739 14.4263 182.632V175.048C14.4263 174.942 14.4583 174.856 14.5223 174.792C14.5969 174.718 14.6876 174.68 14.7943 174.68H15.5623C15.6689 174.68 15.7543 174.718 15.8183 174.792C15.8823 174.856 15.9143 174.942 15.9143 175.048V182.632C15.9143 182.739 15.8823 182.83 15.8183 182.904C15.7543 182.968 15.6689 183 15.5623 183H14.7943ZM14.6663 173.128C14.5596 173.128 14.4689 173.096 14.3943 173.032C14.3303 172.958 14.2983 172.867 14.2983 172.76V171.896C14.2983 171.79 14.3303 171.704 14.3943 171.64C14.4689 171.566 14.5596 171.528 14.6663 171.528H15.6743C15.7809 171.528 15.8663 171.566 15.9303 171.64C16.0049 171.704 16.0423 171.79 16.0423 171.896V172.76C16.0423 172.867 16.0049 172.958 15.9303 173.032C15.8663 173.096 15.7809 173.128 15.6743 173.128H14.6663Z" fill="#646C6D"/>
<path d="M18.8255 183C18.7189 183 18.6282 182.968 18.5535 182.904C18.4895 182.83 18.4575 182.739 18.4575 182.632V175.048C18.4575 174.942 18.4895 174.856 18.5535 174.792C18.6282 174.718 18.7189 174.68 18.8255 174.68H19.5775C19.6842 174.68 19.7695 174.718 19.8335 174.792C19.9082 174.856 19.9455 174.942 19.9455 175.048V175.752C20.2229 175.39 20.5695 175.096 20.9855 174.872C21.4122 174.638 21.9562 174.52 22.6175 174.52C23.3109 174.52 23.8975 174.675 24.3775 174.984C24.8682 175.283 25.2362 175.704 25.4815 176.248C25.7269 176.782 25.8495 177.406 25.8495 178.12V182.632C25.8495 182.739 25.8175 182.83 25.7535 182.904C25.6895 182.968 25.6042 183 25.4975 183H24.6975C24.5909 183 24.5002 182.968 24.4255 182.904C24.3615 182.83 24.3295 182.739 24.3295 182.632V178.2C24.3295 177.454 24.1482 176.872 23.7855 176.456C23.4229 176.03 22.8895 175.816 22.1855 175.816C21.5242 175.816 20.9909 176.03 20.5855 176.456C20.1909 176.872 19.9935 177.454 19.9935 178.2V182.632C19.9935 182.739 19.9562 182.83 19.8815 182.904C19.8175 182.968 19.7322 183 19.6255 183H18.8255Z" fill="#646C6D"/>
<path d="M213.716 9.00019C213.609 9.00019 213.519 8.96819 213.444 8.90419C213.38 8.82952 213.348 8.73886 213.348 8.63219V1.04819C213.348 0.941523 213.38 0.85619 213.444 0.79219C213.519 0.717523 213.609 0.68019 213.716 0.68019H214.436C214.543 0.68019 214.628 0.717523 214.692 0.79219C214.767 0.85619 214.804 0.941523 214.804 1.04819V1.60819C215.049 1.27752 215.359 1.01619 215.732 0.82419C216.105 0.621523 216.553 0.52019 217.076 0.52019C218.281 0.509523 219.135 1.00019 219.636 1.99219C219.881 1.54419 220.239 1.18686 220.708 0.92019C221.177 0.653523 221.711 0.52019 222.308 0.52019C222.863 0.52019 223.364 0.64819 223.812 0.90419C224.271 1.16019 224.628 1.54952 224.884 2.07219C225.151 2.58419 225.284 3.22952 225.284 4.00819V8.63219C225.284 8.73886 225.247 8.82952 225.172 8.90419C225.108 8.96819 225.023 9.00019 224.916 9.00019H224.164C224.057 9.00019 223.967 8.96819 223.892 8.90419C223.828 8.82952 223.796 8.73886 223.796 8.63219V4.15219C223.796 3.55486 223.711 3.08552 223.54 2.74419C223.369 2.40286 223.14 2.16286 222.852 2.02419C222.564 1.88552 222.249 1.81619 221.908 1.81619C221.631 1.81619 221.348 1.88552 221.06 2.02419C220.772 2.16286 220.532 2.40286 220.34 2.74419C220.159 3.08552 220.068 3.55486 220.068 4.15219V8.63219C220.068 8.73886 220.031 8.82952 219.956 8.90419C219.892 8.96819 219.807 9.00019 219.7 9.00019H218.948C218.841 9.00019 218.751 8.96819 218.676 8.90419C218.612 8.82952 218.58 8.73886 218.58 8.63219V4.15219C218.58 3.55486 218.489 3.08552 218.308 2.74419C218.127 2.40286 217.892 2.16286 217.604 2.02419C217.316 1.88552 217.012 1.81619 216.692 1.81619C216.415 1.81619 216.132 1.88552 215.844 2.02419C215.556 2.16286 215.316 2.40286 215.124 2.74419C214.943 3.08552 214.852 3.54952 214.852 4.13619V8.63219C214.852 8.73886 214.815 8.82952 214.74 8.90419C214.676 8.96819 214.591 9.00019 214.484 9.00019H213.716Z" fill="#646C6D"/>
<path d="M229.887 9.16019C229.354 9.16019 228.868 9.05352 228.431 8.84019C227.994 8.62686 227.642 8.33886 227.375 7.97619C227.108 7.61352 226.975 7.20286 226.975 6.74419C226.975 6.00819 227.274 5.42152 227.871 4.98419C228.468 4.54686 229.247 4.25886 230.207 4.12019L232.591 3.78419V3.32019C232.591 2.80819 232.442 2.40819 232.143 2.12019C231.855 1.83219 231.38 1.68819 230.719 1.68819C230.239 1.68819 229.85 1.78419 229.551 1.97619C229.263 2.16819 229.06 2.41352 228.943 2.71219C228.879 2.87219 228.767 2.95219 228.607 2.95219H227.887C227.77 2.95219 227.679 2.92019 227.615 2.85619C227.562 2.78152 227.535 2.69619 227.535 2.60019C227.535 2.44019 227.594 2.24286 227.711 2.00819C227.839 1.77352 228.031 1.54419 228.287 1.32019C228.543 1.09619 228.868 0.909523 229.263 0.76019C229.668 0.60019 230.159 0.52019 230.735 0.52019C231.375 0.52019 231.914 0.605523 232.351 0.77619C232.788 0.93619 233.13 1.15486 233.375 1.43219C233.631 1.70952 233.812 2.02419 233.919 2.37619C234.036 2.72819 234.095 3.08552 234.095 3.44819V8.63219C234.095 8.73886 234.058 8.82952 233.983 8.90419C233.919 8.96819 233.834 9.00019 233.727 9.00019H232.991C232.874 9.00019 232.783 8.96819 232.719 8.90419C232.655 8.82952 232.623 8.73886 232.623 8.63219V7.94419C232.484 8.13619 232.298 8.32819 232.063 8.52019C231.828 8.70152 231.535 8.85619 231.183 8.98419C230.831 9.10152 230.399 9.16019 229.887 9.16019ZM230.223 7.96019C230.66 7.96019 231.06 7.86952 231.423 7.68819C231.786 7.49619 232.068 7.20286 232.271 6.80819C232.484 6.41352 232.591 5.91752 232.591 5.32019V4.87219L230.735 5.14419C229.978 5.25086 229.407 5.43219 229.023 5.68819C228.639 5.93352 228.447 6.24819 228.447 6.63219C228.447 6.93086 228.532 7.18152 228.703 7.38419C228.884 7.57619 229.108 7.72019 229.375 7.81619C229.652 7.91219 229.935 7.96019 230.223 7.96019Z" fill="#646C6D"/>
<path d="M236.011 9.00019C235.926 9.00019 235.846 8.96819 235.771 8.90419C235.707 8.84019 235.675 8.76019 235.675 8.66419C235.675 8.63219 235.68 8.59486 235.691 8.55219C235.712 8.49886 235.744 8.44019 235.787 8.37619L238.571 4.74419L235.963 1.30419C235.92 1.24019 235.888 1.18686 235.867 1.14419C235.856 1.10152 235.851 1.05886 235.851 1.01619C235.851 0.92019 235.883 0.84019 235.947 0.77619C236.011 0.71219 236.091 0.68019 236.187 0.68019H237.003C237.12 0.68019 237.206 0.71219 237.259 0.77619C237.323 0.829524 237.376 0.882857 237.419 0.93619L239.547 3.70419L241.675 0.95219C241.718 0.898857 241.766 0.84019 241.819 0.77619C241.883 0.71219 241.974 0.68019 242.091 0.68019H242.875C242.971 0.68019 243.051 0.71219 243.115 0.77619C243.179 0.84019 243.211 0.92019 243.211 1.01619C243.211 1.05886 243.2 1.10152 243.179 1.14419C243.168 1.18686 243.142 1.24019 243.099 1.30419L240.459 4.77619L243.243 8.37619C243.286 8.44019 243.312 8.49352 243.323 8.53619C243.344 8.57886 243.355 8.62152 243.355 8.66419C243.355 8.76019 243.323 8.84019 243.259 8.90419C243.195 8.96819 243.115 9.00019 243.019 9.00019H242.171C242.064 9.00019 241.979 8.97352 241.915 8.92019C241.851 8.86686 241.798 8.81352 241.755 8.76019L239.499 5.83219L237.243 8.76019C237.2 8.80286 237.147 8.85619 237.083 8.92019C237.03 8.97352 236.944 9.00019 236.827 9.00019H236.011Z" fill="#646C6D"/>
</svg>
