<svg width="382" height="209" viewBox="0 0 382 209" fill="none" xmlns="http://www.w3.org/2000/svg">
<rect x="3" y="109" width="100" height="100" fill="#FAB278"/>
<rect x="267" y="109" width="100" height="100" fill="#FAB278"/>
<circle cx="185" cy="159" r="50" fill="#FAB278"/>
<path d="M3 101L11.8194 93.5467L0.954979 89.6355L3 101ZM38.0591 0.661281L5.10759 92.1933L6.98936 92.8707L39.9409 1.33872L38.0591 0.661281Z" fill="#646C6D"/>
<path d="M21 101L29.8194 93.5467L18.955 89.6355L21 101ZM56.0591 0.661281L23.1076 92.1933L24.9894 92.8707L57.9409 1.33872L56.0591 0.661281Z" fill="#646C6D"/>
<path d="M39 101L47.8194 93.5467L36.955 89.6355L39 101ZM74.0591 0.661281L41.1076 92.1933L42.9894 92.8707L75.9409 1.33872L74.0591 0.661281Z" fill="#646C6D"/>
<path d="M57 101L65.8194 93.5467L54.955 89.6355L57 101ZM92.0591 0.661281L59.1076 92.1933L60.9894 92.8707L93.9409 1.33872L92.0591 0.661281Z" fill="#646C6D"/>
<path d="M75 101L83.8194 93.5467L72.955 89.6355L75 101ZM110.059 0.661281L77.1076 92.1933L78.9894 92.8707L111.941 1.33872L110.059 0.661281Z" fill="#646C6D"/>
<path d="M93 101L101.819 93.5467L90.955 89.6355L93 101ZM128.059 0.661281L95.1076 92.1933L96.9894 92.8707L129.941 1.33872L128.059 0.661281Z" fill="#646C6D"/>
<path d="M111 101L119.819 93.5467L108.955 89.6355L111 101ZM146.059 0.661281L113.108 92.1933L114.989 92.8707L147.941 1.33872L146.059 0.661281Z" fill="#646C6D"/>
<path d="M113 145L121.827 137.555L110.966 133.634L113 145ZM164.059 0.660356L115.116 136.195L116.997 136.875L165.941 1.33964L164.059 0.660356Z" fill="#646C6D"/>
<path d="M139 123L147.824 115.552L136.962 111.634L139 123ZM182.059 0.660735L141.113 114.195L142.994 114.873L183.941 1.33927L182.059 0.660735Z" fill="#646C6D"/>
<path d="M165 101L173.819 93.5467L162.955 89.6355L165 101ZM200.059 0.661281L167.108 92.1933L168.989 92.8707L201.941 1.33872L200.059 0.661281Z" fill="#646C6D"/>
<path d="M183 101L191.819 93.5467L180.955 89.6355L183 101ZM218.059 0.661281L185.108 92.1933L186.989 92.8707L219.941 1.33872L218.059 0.661281Z" fill="#646C6D"/>
<path d="M201 101L209.819 93.5467L198.955 89.6355L201 101ZM236.059 0.661281L203.108 92.1933L204.989 92.8707L237.941 1.33872L236.059 0.661281Z" fill="#646C6D"/>
<path d="M216 109L224.827 101.555L213.966 97.6335L216 109ZM254.059 0.660356L218.116 100.195L219.997 100.875L255.941 1.33964L254.059 0.660356Z" fill="#646C6D"/>
<path d="M230 120L238.828 112.557L227.969 108.633L230 120ZM272.06 0.660161L232.118 111.196L233.999 111.875L273.94 1.33984L272.06 0.660161Z" fill="#646C6D"/>
<path d="M241 140L249.818 132.544L238.952 128.636L241 140ZM290.059 0.66152L243.105 131.193L244.987 131.87L291.941 1.33848L290.059 0.66152Z" fill="#646C6D"/>
<path d="M273 101L281.819 93.5467L270.955 89.6355L273 101ZM308.059 0.661281L275.108 92.1933L276.989 92.8707L309.941 1.33872L308.059 0.661281Z" fill="#646C6D"/>
<path d="M291 101L299.819 93.5467L288.955 89.6355L291 101ZM326.059 0.661281L293.108 92.1933L294.989 92.8707L327.941 1.33872L326.059 0.661281Z" fill="#646C6D"/>
<path d="M309 101L317.819 93.5467L306.955 89.6355L309 101ZM344.059 0.661281L311.108 92.1933L312.989 92.8707L345.941 1.33872L344.059 0.661281Z" fill="#646C6D"/>
<path d="M327 101L335.819 93.5467L324.955 89.6355L327 101ZM362.059 0.661281L329.108 92.1933L330.989 92.8707L363.941 1.33872L362.059 0.661281Z" fill="#646C6D"/>
<path d="M345 101L353.819 93.5467L342.955 89.6355L345 101ZM380.059 0.661281L347.108 92.1933L348.989 92.8707L381.941 1.33872L380.059 0.661281Z" fill="#646C6D"/>
</svg>
