<svg width="100" height="100" viewBox="0 0 100 100" fill="none" xmlns="http://www.w3.org/2000/svg">
<path d="M4 32V96L68 32H4Z" fill="#9EF2FF" fill-opacity="0.2"/>
<path d="M68 32V96L96 4L68 32Z" fill="#9EF2FF" fill-opacity="0.2"/>
<path d="M4 96H68V32L4 96Z" fill="#2DB0C5" fill-opacity="0.2"/>
<path d="M96 68V4L68 96L96 68Z" fill="#2DB0C5" fill-opacity="0.2"/>
<path d="M96 4H32L68 32L96 4Z" fill="#2DB0C5" fill-opacity="0.2"/>
<path d="M4 32H68L32 4L4 32Z" fill="#9EF2FF" fill-opacity="0.2"/>
<path d="M4 32L3.29289 31.2929L3 31.5858V32H4ZM4 96H3V97H4V96ZM68 96V97H68.4142L68.7071 96.7071L68 96ZM32 4V3H31.5858L31.2929 3.29289L32 4ZM96 68L96.7071 68.7071L97 68.4142V68H96ZM96 4H97V3H96V4ZM3 32V96H5V32H3ZM4 97H68V95H4V97ZM69 96V32H67V96H69ZM68 31H4V33H68V31ZM97 68V4H95V68H97ZM96 3H32V5H96V3ZM68.7071 96.7071L96.7071 68.7071L95.2929 67.2929L67.2929 95.2929L68.7071 96.7071ZM68.7071 32.7071L96.7071 4.70711L95.2929 3.29289L67.2929 31.2929L68.7071 32.7071ZM4.70711 32.7071L32.7071 4.70711L31.2929 3.29289L3.29289 31.2929L4.70711 32.7071ZM68.9567 96.2912L96.9567 4.29116L95.0433 3.70884L67.0433 95.7088L68.9567 96.2912ZM4.70711 96.7071L68.7071 32.7071L67.2929 31.2929L3.29289 95.2929L4.70711 96.7071ZM68.6139 31.2106L32.6139 3.21065L31.3861 4.78935L67.3861 32.7894L68.6139 31.2106Z" fill="#429FAD"/>
</svg>
