<svg width="352" height="352" viewBox="0 0 352 352" fill="none" xmlns="http://www.w3.org/2000/svg">
<rect x="2" y="2" width="348" height="348" stroke="#646C6D" stroke-width="4"/>
<path d="M9.37607 343.544C9.26941 343.544 9.17341 343.507 9.08807 343.432C9.01341 343.357 8.97607 343.261 8.97607 343.144V328.984C8.97607 328.867 9.01341 328.771 9.08807 328.696C9.17341 328.621 9.26941 328.584 9.37607 328.584H13.3121C13.4294 328.584 13.5254 328.621 13.6001 328.696C13.6747 328.771 13.7121 328.867 13.7121 328.984V330.36C13.7121 330.477 13.6747 330.573 13.6001 330.648C13.5254 330.723 13.4294 330.76 13.3121 330.76H11.4561V341.192H13.3121C13.4294 341.192 13.5254 341.229 13.6001 341.304C13.6747 341.379 13.7121 341.475 13.7121 341.592V343.144C13.7121 343.261 13.6747 343.357 13.6001 343.432C13.5254 343.507 13.4294 343.544 13.3121 343.544H9.37607Z" fill="#646C6D"/>
<path d="M19.2053 341.16C18.4373 341.16 17.7707 341.053 17.2053 340.84C16.64 340.616 16.1707 340.312 15.7973 339.928C15.4347 339.544 15.1573 339.096 14.9653 338.584C14.7733 338.072 14.6613 337.523 14.6293 336.936C14.6187 336.648 14.608 336.323 14.5973 335.96C14.5973 335.587 14.5973 335.213 14.5973 334.84C14.608 334.456 14.6187 334.115 14.6293 333.816C14.6613 333.229 14.7733 332.685 14.9653 332.184C15.168 331.672 15.456 331.229 15.8293 330.856C16.2133 330.472 16.6827 330.173 17.2373 329.96C17.8027 329.747 18.4587 329.64 19.2053 329.64C19.9627 329.64 20.6187 329.747 21.1733 329.96C21.728 330.173 22.192 330.472 22.5653 330.856C22.9493 331.229 23.2427 331.672 23.4453 332.184C23.648 332.685 23.76 333.229 23.7813 333.816C23.8027 334.115 23.8133 334.456 23.8133 334.84C23.824 335.213 23.824 335.587 23.8133 335.96C23.8133 336.323 23.8027 336.648 23.7813 336.936C23.76 337.523 23.648 338.072 23.4453 338.584C23.2533 339.096 22.9707 339.544 22.5973 339.928C22.2347 340.312 21.7707 340.616 21.2053 340.84C20.6507 341.053 19.984 341.16 19.2053 341.16ZM19.2053 338.84C19.76 338.84 20.16 338.664 20.4053 338.312C20.6613 337.949 20.7947 337.464 20.8053 336.856C20.8267 336.547 20.8373 336.221 20.8373 335.88C20.848 335.539 20.848 335.197 20.8373 334.856C20.8373 334.515 20.8267 334.2 20.8053 333.912C20.7947 333.325 20.6613 332.851 20.4053 332.488C20.16 332.125 19.76 331.939 19.2053 331.928C18.6507 331.939 18.2507 332.125 18.0053 332.488C17.76 332.851 17.6267 333.325 17.6053 333.912C17.5947 334.2 17.584 334.515 17.5733 334.856C17.5733 335.197 17.5733 335.539 17.5733 335.88C17.584 336.221 17.5947 336.547 17.6053 336.856C17.6267 337.464 17.7653 337.949 18.0213 338.312C18.2773 338.664 18.672 338.84 19.2053 338.84Z" fill="#646C6D"/>
<path d="M25.3789 342.2C25.2936 342.2 25.2189 342.163 25.1549 342.088C25.0909 342.024 25.0643 341.944 25.0749 341.848L25.5709 338.712C25.5923 338.573 25.6456 338.451 25.7309 338.344C25.8269 338.227 25.9656 338.168 26.1469 338.168H28.0189C28.1043 338.168 28.1736 338.2 28.2269 338.264C28.2909 338.328 28.3229 338.397 28.3229 338.472C28.3229 338.536 28.3123 338.6 28.2909 338.664L27.0749 341.752C27.0323 341.859 26.9683 341.96 26.8829 342.056C26.7976 342.152 26.6696 342.2 26.4989 342.2H25.3789Z" fill="#646C6D"/>
<path d="M36.8383 341C36.7317 341 36.6357 340.963 36.5503 340.888C36.4757 340.813 36.4383 340.717 36.4383 340.6V332.984L34.2463 334.664C34.1503 334.739 34.049 334.765 33.9423 334.744C33.8463 334.723 33.761 334.664 33.6863 334.568L32.7423 333.336C32.6783 333.24 32.6517 333.139 32.6623 333.032C32.6837 332.915 32.7477 332.824 32.8543 332.76L36.5343 329.912C36.5983 329.869 36.657 329.843 36.7103 329.832C36.7743 329.811 36.8437 329.8 36.9183 329.8H38.9183C39.025 329.8 39.1157 329.837 39.1903 329.912C39.2757 329.987 39.3183 330.083 39.3183 330.2V340.6C39.3183 340.717 39.2757 340.813 39.1903 340.888C39.1157 340.963 39.025 341 38.9183 341H36.8383Z" fill="#646C6D"/>
<path d="M41.1754 343.544C41.0581 343.544 40.9621 343.507 40.8874 343.432C40.8128 343.357 40.7754 343.261 40.7754 343.144V341.592C40.7754 341.475 40.8128 341.379 40.8874 341.304C40.9621 341.229 41.0581 341.192 41.1754 341.192H43.0314V330.76H41.1754C41.0581 330.76 40.9621 330.723 40.8874 330.648C40.8128 330.573 40.7754 330.477 40.7754 330.36V328.984C40.7754 328.867 40.8128 328.771 40.8874 328.696C40.9621 328.621 41.0581 328.584 41.1754 328.584H45.1115C45.2181 328.584 45.3088 328.621 45.3834 328.696C45.4688 328.771 45.5114 328.867 45.5114 328.984V343.144C45.5114 343.261 45.4688 343.357 45.3834 343.432C45.3088 343.507 45.2181 343.544 45.1115 343.544H41.1754Z" fill="#646C6D"/>
<path d="M141.376 197.544C141.269 197.544 141.173 197.507 141.088 197.432C141.013 197.357 140.976 197.261 140.976 197.144V182.984C140.976 182.867 141.013 182.771 141.088 182.696C141.173 182.621 141.269 182.584 141.376 182.584H145.312C145.429 182.584 145.525 182.621 145.6 182.696C145.675 182.771 145.712 182.867 145.712 182.984V184.36C145.712 184.477 145.675 184.573 145.6 184.648C145.525 184.723 145.429 184.76 145.312 184.76H143.456V195.192H145.312C145.429 195.192 145.525 195.229 145.6 195.304C145.675 195.379 145.712 195.475 145.712 195.592V197.144C145.712 197.261 145.675 197.357 145.6 197.432C145.525 197.507 145.429 197.544 145.312 197.544H141.376Z" fill="#646C6D"/>
<path d="M151.205 195.16C150.437 195.16 149.771 195.053 149.205 194.84C148.64 194.616 148.171 194.312 147.797 193.928C147.435 193.544 147.157 193.096 146.965 192.584C146.773 192.072 146.661 191.523 146.629 190.936C146.619 190.648 146.608 190.323 146.597 189.96C146.597 189.587 146.597 189.213 146.597 188.84C146.608 188.456 146.619 188.115 146.629 187.816C146.661 187.229 146.773 186.685 146.965 186.184C147.168 185.672 147.456 185.229 147.829 184.856C148.213 184.472 148.683 184.173 149.237 183.96C149.803 183.747 150.459 183.64 151.205 183.64C151.963 183.64 152.619 183.747 153.173 183.96C153.728 184.173 154.192 184.472 154.565 184.856C154.949 185.229 155.243 185.672 155.445 186.184C155.648 186.685 155.76 187.229 155.781 187.816C155.803 188.115 155.813 188.456 155.813 188.84C155.824 189.213 155.824 189.587 155.813 189.96C155.813 190.323 155.803 190.648 155.781 190.936C155.76 191.523 155.648 192.072 155.445 192.584C155.253 193.096 154.971 193.544 154.597 193.928C154.235 194.312 153.771 194.616 153.205 194.84C152.651 195.053 151.984 195.16 151.205 195.16ZM151.205 192.84C151.76 192.84 152.16 192.664 152.405 192.312C152.661 191.949 152.795 191.464 152.805 190.856C152.827 190.547 152.837 190.221 152.837 189.88C152.848 189.539 152.848 189.197 152.837 188.856C152.837 188.515 152.827 188.2 152.805 187.912C152.795 187.325 152.661 186.851 152.405 186.488C152.16 186.125 151.76 185.939 151.205 185.928C150.651 185.939 150.251 186.125 150.005 186.488C149.76 186.851 149.627 187.325 149.605 187.912C149.595 188.2 149.584 188.515 149.573 188.856C149.573 189.197 149.573 189.539 149.573 189.88C149.584 190.221 149.595 190.547 149.605 190.856C149.627 191.464 149.765 191.949 150.021 192.312C150.277 192.664 150.672 192.84 151.205 192.84Z" fill="#646C6D"/>
<path d="M157.811 195C157.694 195 157.598 194.963 157.523 194.888C157.448 194.813 157.411 194.717 157.411 194.6V192.568C157.411 192.461 157.448 192.371 157.523 192.296C157.598 192.211 157.694 192.168 157.811 192.168H159.827C159.944 192.168 160.04 192.211 160.115 192.296C160.2 192.371 160.243 192.461 160.243 192.568V194.6C160.243 194.717 160.2 194.813 160.115 194.888C160.04 194.963 159.944 195 159.827 195H157.811Z" fill="#646C6D"/>
<path d="M166.214 195.176C165.211 195.176 164.374 195.021 163.702 194.712C163.03 194.392 162.518 193.981 162.166 193.48C161.824 192.968 161.643 192.419 161.622 191.832C161.622 191.736 161.654 191.656 161.718 191.592C161.782 191.528 161.862 191.496 161.958 191.496H164.102C164.24 191.496 164.347 191.528 164.422 191.592C164.507 191.645 164.571 191.715 164.614 191.8C164.71 192.045 164.832 192.248 164.982 192.408C165.142 192.568 165.323 192.685 165.526 192.76C165.739 192.835 165.974 192.872 166.23 192.872C166.528 192.872 166.806 192.808 167.062 192.68C167.318 192.552 167.52 192.365 167.67 192.12C167.83 191.864 167.91 191.56 167.91 191.208C167.91 190.888 167.835 190.611 167.686 190.376C167.547 190.141 167.35 189.955 167.094 189.816C166.838 189.677 166.55 189.608 166.23 189.608C165.974 189.608 165.766 189.64 165.606 189.704C165.446 189.757 165.312 189.827 165.206 189.912C165.099 189.997 165.003 190.072 164.918 190.136C164.832 190.189 164.736 190.216 164.63 190.216H162.534C162.438 190.216 162.352 190.184 162.278 190.12C162.214 190.045 162.182 189.96 162.182 189.864L162.758 184.28C162.779 184.12 162.838 184.003 162.934 183.928C163.03 183.843 163.147 183.8 163.286 183.8H169.702C169.819 183.8 169.915 183.837 169.99 183.912C170.064 183.987 170.102 184.083 170.102 184.2V185.704C170.102 185.821 170.064 185.917 169.99 185.992C169.915 186.067 169.819 186.104 169.702 186.104H165.062L164.854 188.184C165.088 188.024 165.36 187.896 165.67 187.8C165.99 187.693 166.422 187.64 166.966 187.64C167.478 187.64 167.963 187.725 168.422 187.896C168.891 188.067 169.307 188.312 169.67 188.632C170.043 188.952 170.331 189.336 170.534 189.784C170.747 190.221 170.854 190.717 170.854 191.272C170.854 192.029 170.667 192.701 170.294 193.288C169.931 193.875 169.403 194.339 168.71 194.68C168.016 195.011 167.184 195.176 166.214 195.176Z" fill="#646C6D"/>
<path d="M172.207 196.2C172.122 196.2 172.047 196.163 171.983 196.088C171.919 196.024 171.892 195.944 171.903 195.848L172.399 192.712C172.42 192.573 172.474 192.451 172.559 192.344C172.655 192.227 172.794 192.168 172.975 192.168H174.847C174.932 192.168 175.002 192.2 175.055 192.264C175.119 192.328 175.151 192.397 175.151 192.472C175.151 192.536 175.14 192.6 175.119 192.664L173.903 195.752C173.86 195.859 173.796 195.96 173.711 196.056C173.626 196.152 173.498 196.2 173.327 196.2H172.207Z" fill="#646C6D"/>
<path d="M184.658 195.16C183.89 195.16 183.224 195.053 182.658 194.84C182.093 194.616 181.624 194.312 181.25 193.928C180.888 193.544 180.61 193.096 180.418 192.584C180.226 192.072 180.114 191.523 180.082 190.936C180.072 190.648 180.061 190.323 180.05 189.96C180.05 189.587 180.05 189.213 180.05 188.84C180.061 188.456 180.072 188.115 180.082 187.816C180.114 187.229 180.226 186.685 180.418 186.184C180.621 185.672 180.909 185.229 181.282 184.856C181.666 184.472 182.136 184.173 182.69 183.96C183.256 183.747 183.912 183.64 184.658 183.64C185.416 183.64 186.072 183.747 186.626 183.96C187.181 184.173 187.645 184.472 188.018 184.856C188.402 185.229 188.696 185.672 188.898 186.184C189.101 186.685 189.213 187.229 189.234 187.816C189.256 188.115 189.266 188.456 189.266 188.84C189.277 189.213 189.277 189.587 189.266 189.96C189.266 190.323 189.256 190.648 189.234 190.936C189.213 191.523 189.101 192.072 188.898 192.584C188.706 193.096 188.424 193.544 188.05 193.928C187.688 194.312 187.224 194.616 186.658 194.84C186.104 195.053 185.437 195.16 184.658 195.16ZM184.658 192.84C185.213 192.84 185.613 192.664 185.858 192.312C186.114 191.949 186.248 191.464 186.258 190.856C186.28 190.547 186.29 190.221 186.29 189.88C186.301 189.539 186.301 189.197 186.29 188.856C186.29 188.515 186.28 188.2 186.258 187.912C186.248 187.325 186.114 186.851 185.858 186.488C185.613 186.125 185.213 185.939 184.658 185.928C184.104 185.939 183.704 186.125 183.458 186.488C183.213 186.851 183.08 187.325 183.058 187.912C183.048 188.2 183.037 188.515 183.026 188.856C183.026 189.197 183.026 189.539 183.026 189.88C183.037 190.221 183.048 190.547 183.058 190.856C183.08 191.464 183.218 191.949 183.474 192.312C183.73 192.664 184.125 192.84 184.658 192.84Z" fill="#646C6D"/>
<path d="M191.264 195C191.147 195 191.051 194.963 190.976 194.888C190.901 194.813 190.864 194.717 190.864 194.6V192.568C190.864 192.461 190.901 192.371 190.976 192.296C191.051 192.211 191.147 192.168 191.264 192.168H193.28C193.397 192.168 193.493 192.211 193.568 192.296C193.653 192.371 193.696 192.461 193.696 192.568V194.6C193.696 194.717 193.653 194.813 193.568 194.888C193.493 194.963 193.397 195 193.28 195H191.264Z" fill="#646C6D"/>
<path d="M199.667 195.176C198.664 195.176 197.827 195.021 197.155 194.712C196.483 194.392 195.971 193.981 195.619 193.48C195.278 192.968 195.096 192.419 195.075 191.832C195.075 191.736 195.107 191.656 195.171 191.592C195.235 191.528 195.315 191.496 195.411 191.496H197.555C197.694 191.496 197.8 191.528 197.875 191.592C197.96 191.645 198.024 191.715 198.067 191.8C198.163 192.045 198.286 192.248 198.435 192.408C198.595 192.568 198.776 192.685 198.979 192.76C199.192 192.835 199.427 192.872 199.683 192.872C199.982 192.872 200.259 192.808 200.515 192.68C200.771 192.552 200.974 192.365 201.123 192.12C201.283 191.864 201.363 191.56 201.363 191.208C201.363 190.888 201.288 190.611 201.139 190.376C201 190.141 200.803 189.955 200.547 189.816C200.291 189.677 200.003 189.608 199.683 189.608C199.427 189.608 199.219 189.64 199.059 189.704C198.899 189.757 198.766 189.827 198.659 189.912C198.552 189.997 198.456 190.072 198.371 190.136C198.286 190.189 198.19 190.216 198.083 190.216H195.987C195.891 190.216 195.806 190.184 195.731 190.12C195.667 190.045 195.635 189.96 195.635 189.864L196.211 184.28C196.232 184.12 196.291 184.003 196.387 183.928C196.483 183.843 196.6 183.8 196.739 183.8H203.155C203.272 183.8 203.368 183.837 203.443 183.912C203.518 183.987 203.555 184.083 203.555 184.2V185.704C203.555 185.821 203.518 185.917 203.443 185.992C203.368 186.067 203.272 186.104 203.155 186.104H198.515L198.307 188.184C198.542 188.024 198.814 187.896 199.123 187.8C199.443 187.693 199.875 187.64 200.419 187.64C200.931 187.64 201.416 187.725 201.875 187.896C202.344 188.067 202.76 188.312 203.123 188.632C203.496 188.952 203.784 189.336 203.987 189.784C204.2 190.221 204.307 190.717 204.307 191.272C204.307 192.029 204.12 192.701 203.747 193.288C203.384 193.875 202.856 194.339 202.163 194.68C201.47 195.011 200.638 195.176 199.667 195.176Z" fill="#646C6D"/>
<path d="M205.707 197.544C205.589 197.544 205.493 197.507 205.419 197.432C205.344 197.357 205.307 197.261 205.307 197.144V195.592C205.307 195.475 205.344 195.379 205.419 195.304C205.493 195.229 205.589 195.192 205.707 195.192H207.563V184.76H205.707C205.589 184.76 205.493 184.723 205.419 184.648C205.344 184.573 205.307 184.477 205.307 184.36V182.984C205.307 182.867 205.344 182.771 205.419 182.696C205.493 182.621 205.589 182.584 205.707 182.584H209.643C209.749 182.584 209.84 182.621 209.915 182.696C210 182.771 210.043 182.867 210.043 182.984V197.144C210.043 197.261 210 197.357 209.915 197.432C209.84 197.507 209.749 197.544 209.643 197.544H205.707Z" fill="#646C6D"/>
<path d="M9.37607 23.544C9.26941 23.544 9.17341 23.5067 9.08807 23.432C9.01341 23.3573 8.97607 23.2613 8.97607 23.144V8.98398C8.97607 8.86665 9.01341 8.77065 9.08807 8.69598C9.17341 8.62132 9.26941 8.58398 9.37607 8.58398H13.3121C13.4294 8.58398 13.5254 8.62132 13.6001 8.69598C13.6747 8.77065 13.7121 8.86665 13.7121 8.98398V10.36C13.7121 10.4773 13.6747 10.5733 13.6001 10.648C13.5254 10.7227 13.4294 10.76 13.3121 10.76H11.4561V21.192H13.3121C13.4294 21.192 13.5254 21.2293 13.6001 21.304C13.6747 21.3787 13.7121 21.4747 13.7121 21.592V23.144C13.7121 23.2613 13.6747 23.3573 13.6001 23.432C13.5254 23.5067 13.4294 23.544 13.3121 23.544H9.37607Z" fill="#646C6D"/>
<path d="M19.2053 21.16C18.4373 21.16 17.7707 21.0533 17.2053 20.84C16.64 20.616 16.1707 20.312 15.7973 19.928C15.4347 19.544 15.1573 19.096 14.9653 18.584C14.7733 18.072 14.6613 17.5227 14.6293 16.936C14.6187 16.648 14.608 16.3227 14.5973 15.96C14.5973 15.5867 14.5973 15.2133 14.5973 14.84C14.608 14.456 14.6187 14.1147 14.6293 13.816C14.6613 13.2293 14.7733 12.6853 14.9653 12.184C15.168 11.672 15.456 11.2293 15.8293 10.856C16.2133 10.472 16.6827 10.1733 17.2373 9.95998C17.8027 9.74665 18.4587 9.63998 19.2053 9.63998C19.9627 9.63998 20.6187 9.74665 21.1733 9.95998C21.728 10.1733 22.192 10.472 22.5653 10.856C22.9493 11.2293 23.2427 11.672 23.4453 12.184C23.648 12.6853 23.76 13.2293 23.7813 13.816C23.8027 14.1147 23.8133 14.456 23.8133 14.84C23.824 15.2133 23.824 15.5867 23.8133 15.96C23.8133 16.3227 23.8027 16.648 23.7813 16.936C23.76 17.5227 23.648 18.072 23.4453 18.584C23.2533 19.096 22.9707 19.544 22.5973 19.928C22.2347 20.312 21.7707 20.616 21.2053 20.84C20.6507 21.0533 19.984 21.16 19.2053 21.16ZM19.2053 18.84C19.76 18.84 20.16 18.664 20.4053 18.312C20.6613 17.9493 20.7947 17.464 20.8053 16.856C20.8267 16.5467 20.8373 16.2213 20.8373 15.88C20.848 15.5387 20.848 15.1973 20.8373 14.856C20.8373 14.5147 20.8267 14.2 20.8053 13.912C20.7947 13.3253 20.6613 12.8507 20.4053 12.488C20.16 12.1253 19.76 11.9387 19.2053 11.928C18.6507 11.9387 18.2507 12.1253 18.0053 12.488C17.76 12.8507 17.6267 13.3253 17.6053 13.912C17.5947 14.2 17.584 14.5147 17.5733 14.856C17.5733 15.1973 17.5733 15.5387 17.5733 15.88C17.584 16.2213 17.5947 16.5467 17.6053 16.856C17.6267 17.464 17.7653 17.9493 18.0213 18.312C18.2773 18.664 18.672 18.84 19.2053 18.84Z" fill="#646C6D"/>
<path d="M25.3789 22.2C25.2936 22.2 25.2189 22.1627 25.1549 22.088C25.0909 22.024 25.0643 21.944 25.0749 21.848L25.5709 18.712C25.5923 18.5733 25.6456 18.4507 25.7309 18.344C25.8269 18.2267 25.9656 18.168 26.1469 18.168H28.0189C28.1043 18.168 28.1736 18.2 28.2269 18.264C28.2909 18.328 28.3229 18.3973 28.3229 18.472C28.3229 18.536 28.3123 18.6 28.2909 18.664L27.0749 21.752C27.0323 21.8587 26.9683 21.96 26.8829 22.056C26.7976 22.152 26.6696 22.2 26.4989 22.2H25.3789Z" fill="#646C6D"/>
<path d="M37.8303 21.16C37.0623 21.16 36.3957 21.0533 35.8303 20.84C35.265 20.616 34.7957 20.312 34.4223 19.928C34.0597 19.544 33.7823 19.096 33.5903 18.584C33.3983 18.072 33.2863 17.5227 33.2543 16.936C33.2437 16.648 33.233 16.3227 33.2223 15.96C33.2223 15.5867 33.2223 15.2133 33.2223 14.84C33.233 14.456 33.2437 14.1147 33.2543 13.816C33.2863 13.2293 33.3983 12.6853 33.5903 12.184C33.793 11.672 34.081 11.2293 34.4543 10.856C34.8383 10.472 35.3077 10.1733 35.8623 9.95998C36.4277 9.74665 37.0837 9.63998 37.8303 9.63998C38.5877 9.63998 39.2437 9.74665 39.7983 9.95998C40.353 10.1733 40.817 10.472 41.1903 10.856C41.5743 11.2293 41.8677 11.672 42.0703 12.184C42.273 12.6853 42.385 13.2293 42.4063 13.816C42.4277 14.1147 42.4383 14.456 42.4383 14.84C42.449 15.2133 42.449 15.5867 42.4383 15.96C42.4383 16.3227 42.4277 16.648 42.4063 16.936C42.385 17.5227 42.273 18.072 42.0703 18.584C41.8783 19.096 41.5957 19.544 41.2223 19.928C40.8597 20.312 40.3957 20.616 39.8303 20.84C39.2757 21.0533 38.609 21.16 37.8303 21.16ZM37.8303 18.84C38.385 18.84 38.785 18.664 39.0303 18.312C39.2863 17.9493 39.4197 17.464 39.4303 16.856C39.4517 16.5467 39.4623 16.2213 39.4623 15.88C39.473 15.5387 39.473 15.1973 39.4623 14.856C39.4623 14.5147 39.4517 14.2 39.4303 13.912C39.4197 13.3253 39.2863 12.8507 39.0303 12.488C38.785 12.1253 38.385 11.9387 37.8303 11.928C37.2757 11.9387 36.8757 12.1253 36.6303 12.488C36.385 12.8507 36.2517 13.3253 36.2303 13.912C36.2197 14.2 36.209 14.5147 36.1983 14.856C36.1983 15.1973 36.1983 15.5387 36.1983 15.88C36.209 16.2213 36.2197 16.5467 36.2303 16.856C36.2517 17.464 36.3903 17.9493 36.6463 18.312C36.9023 18.664 37.297 18.84 37.8303 18.84Z" fill="#646C6D"/>
<path d="M43.7536 23.544C43.6362 23.544 43.5402 23.5067 43.4656 23.432C43.3909 23.3573 43.3536 23.2613 43.3536 23.144V21.592C43.3536 21.4747 43.3909 21.3787 43.4656 21.304C43.5402 21.2293 43.6362 21.192 43.7536 21.192H45.6096V10.76H43.7536C43.6362 10.76 43.5402 10.7227 43.4656 10.648C43.3909 10.5733 43.3536 10.4773 43.3536 10.36V8.98398C43.3536 8.86665 43.3909 8.77065 43.4656 8.69598C43.5402 8.62132 43.6362 8.58398 43.7536 8.58398H47.6896C47.7962 8.58398 47.8869 8.62132 47.9616 8.69598C48.0469 8.77065 48.0896 8.86665 48.0896 8.98398V23.144C48.0896 23.2613 48.0469 23.3573 47.9616 23.432C47.8869 23.5067 47.7962 23.544 47.6896 23.544H43.7536Z" fill="#646C6D"/>
<path d="M306.376 23.544C306.269 23.544 306.173 23.5067 306.088 23.432C306.013 23.3573 305.976 23.2613 305.976 23.144V8.98398C305.976 8.86665 306.013 8.77065 306.088 8.69598C306.173 8.62132 306.269 8.58398 306.376 8.58398H310.312C310.429 8.58398 310.525 8.62132 310.6 8.69598C310.675 8.77065 310.712 8.86665 310.712 8.98398V10.36C310.712 10.4773 310.675 10.5733 310.6 10.648C310.525 10.7227 310.429 10.76 310.312 10.76H308.456V21.192H310.312C310.429 21.192 310.525 21.2293 310.6 21.304C310.675 21.3787 310.712 21.4747 310.712 21.592V23.144C310.712 23.2613 310.675 23.3573 310.6 23.432C310.525 23.5067 310.429 23.544 310.312 23.544H306.376Z" fill="#646C6D"/>
<path d="M315.073 21C314.966 21 314.87 20.9627 314.785 20.888C314.71 20.8133 314.673 20.7173 314.673 20.6V12.984L312.481 14.664C312.385 14.7387 312.283 14.7653 312.177 14.744C312.081 14.7227 311.995 14.664 311.921 14.568L310.977 13.336C310.913 13.24 310.886 13.1387 310.897 13.032C310.918 12.9147 310.982 12.824 311.089 12.76L314.769 9.91198C314.833 9.86932 314.891 9.84265 314.945 9.83198C315.009 9.81065 315.078 9.79998 315.153 9.79998H317.153C317.259 9.79998 317.35 9.83732 317.425 9.91198C317.51 9.98665 317.553 10.0827 317.553 10.2V20.6C317.553 20.7173 317.51 20.8133 317.425 20.888C317.35 20.9627 317.259 21 317.153 21H315.073Z" fill="#646C6D"/>
<path d="M319.426 22.2C319.34 22.2 319.266 22.1627 319.202 22.088C319.138 22.024 319.111 21.944 319.122 21.848L319.618 18.712C319.639 18.5733 319.692 18.4507 319.778 18.344C319.874 18.2267 320.012 18.168 320.194 18.168H322.066C322.151 18.168 322.221 18.2 322.274 18.264C322.338 18.328 322.37 18.3973 322.37 18.472C322.37 18.536 322.359 18.6 322.338 18.664L321.122 21.752C321.079 21.8587 321.015 21.96 320.93 22.056C320.844 22.152 320.717 22.2 320.546 22.2H319.426Z" fill="#646C6D"/>
<path d="M331.877 21.16C331.109 21.16 330.443 21.0533 329.877 20.84C329.312 20.616 328.843 20.312 328.469 19.928C328.107 19.544 327.829 19.096 327.637 18.584C327.445 18.072 327.333 17.5227 327.301 16.936C327.291 16.648 327.28 16.3227 327.269 15.96C327.269 15.5867 327.269 15.2133 327.269 14.84C327.28 14.456 327.291 14.1147 327.301 13.816C327.333 13.2293 327.445 12.6853 327.637 12.184C327.84 11.672 328.128 11.2293 328.501 10.856C328.885 10.472 329.355 10.1733 329.909 9.95998C330.475 9.74665 331.131 9.63998 331.877 9.63998C332.635 9.63998 333.291 9.74665 333.845 9.95998C334.4 10.1733 334.864 10.472 335.237 10.856C335.621 11.2293 335.915 11.672 336.117 12.184C336.32 12.6853 336.432 13.2293 336.453 13.816C336.475 14.1147 336.485 14.456 336.485 14.84C336.496 15.2133 336.496 15.5867 336.485 15.96C336.485 16.3227 336.475 16.648 336.453 16.936C336.432 17.5227 336.32 18.072 336.117 18.584C335.925 19.096 335.643 19.544 335.269 19.928C334.907 20.312 334.443 20.616 333.877 20.84C333.323 21.0533 332.656 21.16 331.877 21.16ZM331.877 18.84C332.432 18.84 332.832 18.664 333.077 18.312C333.333 17.9493 333.467 17.464 333.477 16.856C333.499 16.5467 333.509 16.2213 333.509 15.88C333.52 15.5387 333.52 15.1973 333.509 14.856C333.509 14.5147 333.499 14.2 333.477 13.912C333.467 13.3253 333.333 12.8507 333.077 12.488C332.832 12.1253 332.432 11.9387 331.877 11.928C331.323 11.9387 330.923 12.1253 330.677 12.488C330.432 12.8507 330.299 13.3253 330.277 13.912C330.267 14.2 330.256 14.5147 330.245 14.856C330.245 15.1973 330.245 15.5387 330.245 15.88C330.256 16.2213 330.267 16.5467 330.277 16.856C330.299 17.464 330.437 17.9493 330.693 18.312C330.949 18.664 331.344 18.84 331.877 18.84Z" fill="#646C6D"/>
<path d="M337.8 23.544C337.683 23.544 337.587 23.5067 337.512 23.432C337.438 23.3573 337.4 23.2613 337.4 23.144V21.592C337.4 21.4747 337.438 21.3787 337.512 21.304C337.587 21.2293 337.683 21.192 337.8 21.192H339.656V10.76H337.8C337.683 10.76 337.587 10.7227 337.512 10.648C337.438 10.5733 337.4 10.4773 337.4 10.36V8.98398C337.4 8.86665 337.438 8.77065 337.512 8.69598C337.587 8.62132 337.683 8.58398 337.8 8.58398H341.736C341.843 8.58398 341.934 8.62132 342.008 8.69598C342.094 8.77065 342.136 8.86665 342.136 8.98398V23.144C342.136 23.2613 342.094 23.3573 342.008 23.432C341.934 23.5067 341.843 23.544 341.736 23.544H337.8Z" fill="#646C6D"/>
<path d="M309.376 343.544C309.269 343.544 309.173 343.507 309.088 343.432C309.013 343.357 308.976 343.261 308.976 343.144V328.984C308.976 328.867 309.013 328.771 309.088 328.696C309.173 328.621 309.269 328.584 309.376 328.584H313.312C313.429 328.584 313.525 328.621 313.6 328.696C313.675 328.771 313.712 328.867 313.712 328.984V330.36C313.712 330.477 313.675 330.573 313.6 330.648C313.525 330.723 313.429 330.76 313.312 330.76H311.456V341.192H313.312C313.429 341.192 313.525 341.229 313.6 341.304C313.675 341.379 313.712 341.475 313.712 341.592V343.144C313.712 343.261 313.675 343.357 313.6 343.432C313.525 343.507 313.429 343.544 313.312 343.544H309.376Z" fill="#646C6D"/>
<path d="M318.073 341C317.966 341 317.87 340.963 317.785 340.888C317.71 340.813 317.673 340.717 317.673 340.6V332.984L315.481 334.664C315.385 334.739 315.283 334.765 315.177 334.744C315.081 334.723 314.995 334.664 314.921 334.568L313.977 333.336C313.913 333.24 313.886 333.139 313.897 333.032C313.918 332.915 313.982 332.824 314.089 332.76L317.769 329.912C317.833 329.869 317.891 329.843 317.945 329.832C318.009 329.811 318.078 329.8 318.153 329.8H320.153C320.259 329.8 320.35 329.837 320.425 329.912C320.51 329.987 320.553 330.083 320.553 330.2V340.6C320.553 340.717 320.51 340.813 320.425 340.888C320.35 340.963 320.259 341 320.153 341H318.073Z" fill="#646C6D"/>
<path d="M322.426 342.2C322.34 342.2 322.266 342.163 322.202 342.088C322.138 342.024 322.111 341.944 322.122 341.848L322.618 338.712C322.639 338.573 322.692 338.451 322.778 338.344C322.874 338.227 323.012 338.168 323.194 338.168H325.066C325.151 338.168 325.221 338.2 325.274 338.264C325.338 338.328 325.37 338.397 325.37 338.472C325.37 338.536 325.359 338.6 325.338 338.664L324.122 341.752C324.079 341.859 324.015 341.96 323.93 342.056C323.844 342.152 323.717 342.2 323.546 342.2H322.426Z" fill="#646C6D"/>
<path d="M333.885 341C333.779 341 333.683 340.963 333.597 340.888C333.523 340.813 333.485 340.717 333.485 340.6V332.984L331.293 334.664C331.197 334.739 331.096 334.765 330.989 334.744C330.893 334.723 330.808 334.664 330.733 334.568L329.789 333.336C329.725 333.24 329.699 333.139 329.709 333.032C329.731 332.915 329.795 332.824 329.901 332.76L333.581 329.912C333.645 329.869 333.704 329.843 333.757 329.832C333.821 329.811 333.891 329.8 333.965 329.8H335.965C336.072 329.8 336.163 329.837 336.237 329.912C336.323 329.987 336.365 330.083 336.365 330.2V340.6C336.365 340.717 336.323 340.813 336.237 340.888C336.163 340.963 336.072 341 335.965 341H333.885Z" fill="#646C6D"/>
<path d="M338.222 343.544C338.105 343.544 338.009 343.507 337.934 343.432C337.86 343.357 337.822 343.261 337.822 343.144V341.592C337.822 341.475 337.86 341.379 337.934 341.304C338.009 341.229 338.105 341.192 338.222 341.192H340.078V330.76H338.222C338.105 330.76 338.009 330.723 337.934 330.648C337.86 330.573 337.822 330.477 337.822 330.36V328.984C337.822 328.867 337.86 328.771 337.934 328.696C338.009 328.621 338.105 328.584 338.222 328.584H342.158C342.265 328.584 342.356 328.621 342.43 328.696C342.516 328.771 342.558 328.867 342.558 328.984V343.144C342.558 343.261 342.516 343.357 342.43 343.432C342.356 343.507 342.265 343.544 342.158 343.544H338.222Z" fill="#646C6D"/>
<path d="M134.76 167C134.643 167 134.552 166.968 134.488 166.904C134.424 166.829 134.392 166.739 134.392 166.632V156.184C134.392 156.067 134.424 155.976 134.488 155.912C134.552 155.837 134.643 155.8 134.76 155.8H141.288C141.405 155.8 141.496 155.837 141.56 155.912C141.624 155.976 141.656 156.067 141.656 156.184V156.824C141.656 156.941 141.624 157.032 141.56 157.096C141.496 157.16 141.405 157.192 141.288 157.192H135.944V160.92H140.968C141.085 160.92 141.176 160.957 141.24 161.032C141.304 161.096 141.336 161.187 141.336 161.304V161.944C141.336 162.051 141.304 162.141 141.24 162.216C141.176 162.28 141.085 162.312 140.968 162.312H135.944V166.632C135.944 166.739 135.907 166.829 135.832 166.904C135.768 166.968 135.677 167 135.56 167H134.76Z" fill="#646C6D"/>
<path d="M144.104 167C143.987 167 143.896 166.968 143.832 166.904C143.768 166.829 143.736 166.739 143.736 166.632V156.184C143.736 156.067 143.768 155.976 143.832 155.912C143.896 155.837 143.987 155.8 144.104 155.8H148.008C149.213 155.8 150.168 156.083 150.872 156.648C151.576 157.213 151.928 158.051 151.928 159.16C151.928 159.981 151.72 160.653 151.304 161.176C150.899 161.688 150.344 162.045 149.64 162.248L152.104 166.504C152.136 166.568 152.152 166.627 152.152 166.68C152.152 166.765 152.115 166.84 152.04 166.904C151.976 166.968 151.901 167 151.816 167H151.048C150.867 167 150.733 166.952 150.648 166.856C150.563 166.76 150.488 166.664 150.424 166.568L148.104 162.504H145.304V166.632C145.304 166.739 145.267 166.829 145.192 166.904C145.128 166.968 145.037 167 144.92 167H144.104ZM145.304 161.144H147.944C148.744 161.144 149.341 160.979 149.736 160.648C150.131 160.307 150.328 159.805 150.328 159.144C150.328 158.493 150.131 157.997 149.736 157.656C149.352 157.315 148.755 157.144 147.944 157.144H145.304V161.144Z" fill="#646C6D"/>
<path d="M153.468 167C153.383 167 153.308 166.968 153.244 166.904C153.18 166.84 153.148 166.765 153.148 166.68C153.148 166.627 153.154 166.568 153.164 166.504L157.132 156.152C157.175 156.045 157.234 155.96 157.308 155.896C157.383 155.832 157.495 155.8 157.644 155.8H158.732C158.871 155.8 158.978 155.832 159.052 155.896C159.138 155.96 159.202 156.045 159.244 156.152L163.196 166.504C163.218 166.568 163.228 166.627 163.228 166.68C163.228 166.765 163.196 166.84 163.132 166.904C163.068 166.968 162.994 167 162.908 167H162.092C161.964 167 161.868 166.968 161.804 166.904C161.751 166.84 161.714 166.781 161.692 166.728L160.812 164.456H155.564L154.684 166.728C154.674 166.781 154.636 166.84 154.572 166.904C154.508 166.968 154.412 167 154.284 167H153.468ZM156.028 163.08H160.348L158.188 157.4L156.028 163.08Z" fill="#646C6D"/>
<path d="M168.8 167.16C167.861 167.16 167.061 166.984 166.4 166.632C165.749 166.28 165.248 165.784 164.896 165.144C164.555 164.504 164.363 163.752 164.32 162.888C164.309 162.419 164.304 161.923 164.304 161.4C164.304 160.867 164.309 160.36 164.32 159.88C164.363 159.016 164.555 158.269 164.896 157.64C165.248 157.011 165.755 156.52 166.416 156.168C167.077 155.816 167.872 155.64 168.8 155.64C169.557 155.64 170.213 155.747 170.768 155.96C171.323 156.173 171.776 156.445 172.128 156.776C172.491 157.096 172.757 157.432 172.928 157.784C173.109 158.136 173.205 158.445 173.216 158.712C173.227 158.808 173.2 158.888 173.136 158.952C173.072 159.005 172.987 159.032 172.88 159.032H171.936C171.829 159.032 171.749 159.011 171.696 158.968C171.653 158.925 171.611 158.851 171.568 158.744C171.472 158.467 171.312 158.195 171.088 157.928C170.875 157.661 170.581 157.443 170.208 157.272C169.845 157.091 169.376 157 168.8 157C167.957 157 167.275 157.229 166.752 157.688C166.24 158.147 165.963 158.904 165.92 159.96C165.888 160.909 165.888 161.859 165.92 162.808C165.963 163.875 166.245 164.643 166.768 165.112C167.291 165.571 167.973 165.8 168.816 165.8C169.381 165.8 169.883 165.699 170.32 165.496C170.768 165.283 171.12 164.957 171.376 164.52C171.632 164.083 171.76 163.528 171.76 162.856V162.184H169.36C169.253 162.184 169.163 162.152 169.088 162.088C169.024 162.013 168.992 161.917 168.992 161.8V161.288C168.992 161.171 169.024 161.08 169.088 161.016C169.163 160.941 169.253 160.904 169.36 160.904H172.976C173.093 160.904 173.184 160.941 173.248 161.016C173.312 161.08 173.344 161.171 173.344 161.288V162.824C173.344 163.699 173.163 164.461 172.8 165.112C172.448 165.763 171.931 166.269 171.248 166.632C170.565 166.984 169.749 167.16 168.8 167.16Z" fill="#646C6D"/>
<path d="M175.994 167C175.888 167 175.797 166.968 175.722 166.904C175.658 166.829 175.626 166.739 175.626 166.632V156.184C175.626 156.067 175.658 155.976 175.722 155.912C175.797 155.837 175.888 155.8 175.994 155.8H176.794C176.922 155.8 177.018 155.832 177.082 155.896C177.146 155.96 177.184 156.013 177.194 156.056L180.586 162.52L183.994 156.056C184.016 156.013 184.053 155.96 184.106 155.896C184.17 155.832 184.266 155.8 184.394 155.8H185.178C185.296 155.8 185.386 155.837 185.45 155.912C185.525 155.976 185.562 156.067 185.562 156.184V166.632C185.562 166.739 185.525 166.829 185.45 166.904C185.386 166.968 185.296 167 185.178 167H184.394C184.288 167 184.197 166.968 184.122 166.904C184.058 166.829 184.026 166.739 184.026 166.632V158.76L181.354 163.976C181.312 164.083 181.248 164.168 181.162 164.232C181.077 164.285 180.97 164.312 180.842 164.312H180.346C180.208 164.312 180.096 164.285 180.01 164.232C179.936 164.168 179.872 164.083 179.818 163.976L177.146 158.76V166.632C177.146 166.739 177.109 166.829 177.034 166.904C176.97 166.968 176.885 167 176.778 167H175.994Z" fill="#646C6D"/>
<path d="M188.698 167C188.58 167 188.49 166.968 188.426 166.904C188.362 166.829 188.33 166.739 188.33 166.632V156.184C188.33 156.067 188.362 155.976 188.426 155.912C188.49 155.837 188.58 155.8 188.698 155.8H195.306C195.423 155.8 195.514 155.837 195.578 155.912C195.642 155.976 195.674 156.067 195.674 156.184V156.792C195.674 156.909 195.642 157 195.578 157.064C195.514 157.128 195.423 157.16 195.306 157.16H189.866V160.664H194.954C195.071 160.664 195.162 160.701 195.226 160.776C195.29 160.84 195.322 160.931 195.322 161.048V161.64C195.322 161.747 195.29 161.837 195.226 161.912C195.162 161.976 195.071 162.008 194.954 162.008H189.866V165.64H195.434C195.551 165.64 195.642 165.672 195.706 165.736C195.77 165.8 195.802 165.891 195.802 166.008V166.632C195.802 166.739 195.77 166.829 195.706 166.904C195.642 166.968 195.551 167 195.434 167H188.698Z" fill="#646C6D"/>
<path d="M198.401 167C198.283 167 198.193 166.968 198.129 166.904C198.065 166.829 198.033 166.739 198.033 166.632V156.184C198.033 156.067 198.065 155.976 198.129 155.912C198.193 155.837 198.283 155.8 198.401 155.8H199.137C199.265 155.8 199.361 155.832 199.425 155.896C199.489 155.949 199.526 155.992 199.537 156.024L204.849 164.184V156.184C204.849 156.067 204.881 155.976 204.945 155.912C205.009 155.837 205.099 155.8 205.217 155.8H205.985C206.102 155.8 206.193 155.837 206.257 155.912C206.331 155.976 206.369 156.067 206.369 156.184V166.616C206.369 166.723 206.331 166.813 206.257 166.888C206.193 166.963 206.107 167 206.001 167H205.233C205.115 167 205.025 166.968 204.961 166.904C204.907 166.84 204.87 166.797 204.849 166.776L199.553 158.696V166.632C199.553 166.739 199.515 166.829 199.441 166.904C199.377 166.968 199.286 167 199.169 167H198.401Z" fill="#646C6D"/>
<path d="M211.958 167C211.851 167 211.761 166.968 211.686 166.904C211.622 166.829 211.59 166.739 211.59 166.632V157.224H208.518C208.411 157.224 208.321 157.192 208.246 157.128C208.182 157.053 208.15 156.963 208.15 156.856V156.184C208.15 156.067 208.182 155.976 208.246 155.912C208.321 155.837 208.411 155.8 208.518 155.8H216.23C216.347 155.8 216.438 155.837 216.502 155.912C216.577 155.976 216.614 156.067 216.614 156.184V156.856C216.614 156.963 216.577 157.053 216.502 157.128C216.438 157.192 216.347 157.224 216.23 157.224H213.174V166.632C213.174 166.739 213.137 166.829 213.062 166.904C212.998 166.968 212.907 167 212.79 167H211.958Z" fill="#646C6D"/>
<rect x="174" y="174" width="4" height="4" fill="#FAB278"/>
</svg>
