<svg width="448" height="113" viewBox="0 0 448 113" fill="none" xmlns="http://www.w3.org/2000/svg">
<path d="M176 107L198.857 70.2727M176 107V42.7273M176 107H249.143M176 107L249.143 42.7273M176 107L272 70.2727M198.857 70.2727L176 42.7273M198.857 70.2727V6M198.857 70.2727H272M176 42.7273L198.857 6M176 42.7273H249.143M176 42.7273L272 6M198.857 6H272M198.857 6L272 70.2727M272 70.2727V6M272 70.2727L249.143 107M272 6L249.143 107M272 6L249.143 42.7273M249.143 107V42.7273" stroke="#646C6D"/>
<ellipse cx="29" cy="70.5" rx="6" ry="6.5" fill="#AD6831"/>
<ellipse cx="102" cy="70.5" rx="6" ry="6.5" fill="#AD6831"/>
<circle cx="6" cy="107" r="6" fill="#AD6831"/>
<ellipse cx="79.5" cy="107" rx="5.5" ry="6" fill="#AD6831"/>
<circle cx="29" cy="6" r="6" fill="#AD6831"/>
<circle cx="102" cy="6" r="6" fill="#AD6831"/>
<ellipse cx="6" cy="42.5" rx="6" ry="6.5" fill="#AD6831"/>
<ellipse cx="79.5" cy="42.5" rx="5.5" ry="6.5" fill="#AD6831"/>
<ellipse cx="199" cy="70.5" rx="6" ry="6.5" fill="#AD6831"/>
<ellipse cx="272" cy="70.5" rx="6" ry="6.5" fill="#AD6831"/>
<circle cx="176" cy="107" r="6" fill="#AD6831"/>
<ellipse cx="249.5" cy="107" rx="5.5" ry="6" fill="#AD6831"/>
<circle cx="199" cy="6" r="6" fill="#AD6831"/>
<circle cx="272" cy="6" r="6" fill="#AD6831"/>
<ellipse cx="176" cy="42.5" rx="6" ry="6.5" fill="#AD6831"/>
<ellipse cx="249.5" cy="42.5" rx="5.5" ry="6.5" fill="#AD6831"/>
<path d="M345 107V42.7273L368.095 6H442V70.2727L418.905 107H345Z" fill="#FAB278"/>
<path d="M345 107V42.7273M345 107H418.905M345 107L418.905 42.7273M345 42.7273L368.095 6H442M345 42.7273H418.905M345 42.7273L442 6M442 6V70.2727L418.905 107M442 6L418.905 107M442 6L418.905 42.7273M418.905 107V42.7273" stroke="#646C6D"/>
<ellipse cx="442" cy="70.5" rx="6" ry="6.5" fill="#AD6831"/>
<circle cx="346" cy="107" r="6" fill="#AD6831"/>
<circle cx="419" cy="107" r="6" fill="#AD6831"/>
<circle cx="369" cy="6" r="6" fill="#AD6831"/>
<circle cx="442" cy="6" r="6" fill="#AD6831"/>
<ellipse cx="346" cy="42.5" rx="6" ry="6.5" fill="#AD6831"/>
<ellipse cx="419" cy="42.5" rx="6" ry="6.5" fill="#AD6831"/>
<path d="M151.707 54.7071C152.098 54.3166 152.098 53.6834 151.707 53.2929L145.343 46.9289C144.953 46.5384 144.319 46.5384 143.929 46.9289C143.538 47.3195 143.538 47.9526 143.929 48.3431L149.586 54L143.929 59.6569C143.538 60.0474 143.538 60.6805 143.929 61.0711C144.319 61.4616 144.953 61.4616 145.343 61.0711L151.707 54.7071ZM127 55L151 55V53L127 53V55Z" fill="#646C6D"/>
<path d="M321.707 54.7071C322.098 54.3166 322.098 53.6834 321.707 53.2929L315.343 46.9289C314.953 46.5384 314.319 46.5384 313.929 46.9289C313.538 47.3195 313.538 47.9526 313.929 48.3431L319.586 54L313.929 59.6569C313.538 60.0474 313.538 60.6805 313.929 61.0711C314.319 61.4616 314.953 61.4616 315.343 61.0711L321.707 54.7071ZM297 55L321 55V53L297 53V55Z" fill="#646C6D"/>
</svg>
