<svg width="528" height="352" viewBox="0 0 528 352" fill="none" xmlns="http://www.w3.org/2000/svg">
<rect x="1" y="1" width="350" height="350" fill="#C5F7FF" stroke="#646C6D" stroke-width="2"/>
<rect x="353" y="1" width="174" height="174" fill="#C5F7FF" stroke="#646C6D" stroke-width="2"/>
<rect x="353" y="177" width="86" height="86" fill="#C5F7FF" stroke="#646C6D" stroke-width="2"/>
<rect x="353" y="265" width="42" height="42" fill="#C5F7FF" stroke="#646C6D" stroke-width="2"/>
<rect x="353" y="309" width="20" height="20" fill="#C5F7FF" stroke="#646C6D" stroke-width="2"/>
<rect x="353" y="331" width="9" height="9" fill="#C5F7FF" stroke="#646C6D" stroke-width="2"/>
<rect x="353" y="342" width="3.5" height="3.5" fill="#C5F7FF" stroke="#646C6D" stroke-width="2"/>
<path d="M358.01 322C357.943 322 357.887 321.98 357.84 321.94C357.8 321.893 357.78 321.837 357.78 321.77V320.33H354.54C354.473 320.33 354.417 320.31 354.37 320.27C354.33 320.223 354.31 320.167 354.31 320.1V319.7C354.31 319.673 354.317 319.633 354.33 319.58C354.35 319.52 354.38 319.46 354.42 319.4L357.42 315.17C357.5 315.057 357.623 315 357.79 315H358.51C358.577 315 358.63 315.023 358.67 315.07C358.717 315.11 358.74 315.163 358.74 315.23V319.46H359.64C359.713 319.46 359.77 319.483 359.81 319.53C359.857 319.57 359.88 319.623 359.88 319.69V320.1C359.88 320.167 359.857 320.223 359.81 320.27C359.77 320.31 359.717 320.33 359.65 320.33H358.74V321.77C358.74 321.837 358.717 321.893 358.67 321.94C358.63 321.98 358.577 322 358.51 322H358.01ZM355.38 319.48H357.79V316.05L355.38 319.48Z" fill="#646C6D"/>
<path d="M360.711 322C360.658 322 360.608 321.98 360.561 321.94C360.521 321.9 360.501 321.85 360.501 321.79C360.501 321.77 360.504 321.747 360.511 321.72C360.524 321.687 360.544 321.65 360.571 321.61L362.311 319.34L360.681 317.19C360.654 317.15 360.634 317.117 360.621 317.09C360.614 317.063 360.611 317.037 360.611 317.01C360.611 316.95 360.631 316.9 360.671 316.86C360.711 316.82 360.761 316.8 360.821 316.8H361.331C361.404 316.8 361.458 316.82 361.491 316.86C361.531 316.893 361.564 316.927 361.591 316.96L362.921 318.69L364.251 316.97C364.278 316.937 364.308 316.9 364.341 316.86C364.381 316.82 364.438 316.8 364.511 316.8H365.001C365.061 316.8 365.111 316.82 365.151 316.86C365.191 316.9 365.211 316.95 365.211 317.01C365.211 317.037 365.204 317.063 365.191 317.09C365.184 317.117 365.168 317.15 365.141 317.19L363.491 319.36L365.231 321.61C365.258 321.65 365.274 321.683 365.281 321.71C365.294 321.737 365.301 321.763 365.301 321.79C365.301 321.85 365.281 321.9 365.241 321.94C365.201 321.98 365.151 322 365.091 322H364.561C364.494 322 364.441 321.983 364.401 321.95C364.361 321.917 364.328 321.883 364.301 321.85L362.891 320.02L361.481 321.85C361.454 321.877 361.421 321.91 361.381 321.95C361.348 321.983 361.294 322 361.221 322H360.711Z" fill="#646C6D"/>
<path d="M369.612 322C369.545 322 369.488 321.98 369.442 321.94C369.402 321.893 369.382 321.837 369.382 321.77V320.33H366.142C366.075 320.33 366.018 320.31 365.972 320.27C365.932 320.223 365.912 320.167 365.912 320.1V319.7C365.912 319.673 365.918 319.633 365.932 319.58C365.952 319.52 365.982 319.46 366.022 319.4L369.022 315.17C369.102 315.057 369.225 315 369.392 315H370.112C370.178 315 370.232 315.023 370.272 315.07C370.318 315.11 370.342 315.163 370.342 315.23V319.46H371.242C371.315 319.46 371.372 319.483 371.412 319.53C371.458 319.57 371.482 319.623 371.482 319.69V320.1C371.482 320.167 371.458 320.223 371.412 320.27C371.372 320.31 371.318 320.33 371.252 320.33H370.342V321.77C370.342 321.837 370.318 321.893 370.272 321.94C370.232 321.98 370.178 322 370.112 322H369.612ZM366.982 319.48H369.392V316.05L366.982 319.48Z" fill="#646C6D"/>
<path d="M362.254 293.2C361.481 293.2 360.768 293.107 360.114 292.92C359.474 292.72 358.921 292.44 358.454 292.08C358.001 291.707 357.648 291.26 357.394 290.74C357.141 290.22 357.014 289.633 357.014 288.98C357.014 288.167 357.208 287.467 357.594 286.88C357.994 286.293 358.521 285.847 359.174 285.54C358.654 285.233 358.248 284.833 357.954 284.34C357.661 283.847 357.514 283.26 357.514 282.58C357.514 281.78 357.708 281.107 358.094 280.56C358.494 280 359.048 279.567 359.754 279.26C360.474 278.953 361.308 278.8 362.254 278.8C363.188 278.8 364.008 278.953 364.714 279.26C365.434 279.553 365.988 279.98 366.374 280.54C366.774 281.1 366.974 281.773 366.974 282.56C366.974 283.24 366.828 283.833 366.534 284.34C366.241 284.833 365.841 285.233 365.334 285.54C365.988 285.847 366.508 286.293 366.894 286.88C367.294 287.467 367.494 288.167 367.494 288.98C367.494 289.847 367.274 290.6 366.834 291.24C366.394 291.867 365.781 292.353 364.994 292.7C364.208 293.033 363.294 293.2 362.254 293.2ZM362.254 291.6C362.868 291.6 363.421 291.493 363.914 291.28C364.408 291.067 364.801 290.767 365.094 290.38C365.388 289.98 365.535 289.513 365.535 288.98C365.535 288.433 365.388 287.973 365.094 287.6C364.801 287.213 364.408 286.92 363.914 286.72C363.421 286.507 362.868 286.4 362.254 286.4C361.641 286.4 361.081 286.507 360.574 286.72C360.081 286.92 359.688 287.213 359.394 287.6C359.101 287.973 358.954 288.433 358.954 288.98C358.954 289.513 359.101 289.98 359.394 290.38C359.688 290.767 360.081 291.067 360.574 291.28C361.081 291.493 361.641 291.6 362.254 291.6ZM362.254 284.82C362.761 284.82 363.228 284.727 363.654 284.54C364.094 284.353 364.441 284.1 364.694 283.78C364.961 283.46 365.094 283.073 365.094 282.62C365.094 282.167 364.968 281.773 364.714 281.44C364.474 281.107 364.134 280.853 363.694 280.68C363.268 280.493 362.788 280.4 362.254 280.4C361.721 280.4 361.234 280.493 360.794 280.68C360.368 280.853 360.028 281.107 359.774 281.44C359.521 281.773 359.394 282.167 359.394 282.62C359.394 283.087 359.521 283.487 359.774 283.82C360.028 284.14 360.368 284.387 360.794 284.56C361.234 284.733 361.721 284.82 362.254 284.82Z" fill="#646C6D"/>
<path d="M369.609 293C369.503 293 369.403 292.96 369.309 292.88C369.229 292.8 369.189 292.7 369.189 292.58C369.189 292.54 369.196 292.493 369.209 292.44C369.236 292.373 369.276 292.3 369.329 292.22L372.809 287.68L369.549 283.38C369.496 283.3 369.456 283.233 369.429 283.18C369.416 283.127 369.409 283.073 369.409 283.02C369.409 282.9 369.449 282.8 369.529 282.72C369.609 282.64 369.709 282.6 369.829 282.6H370.849C370.996 282.6 371.103 282.64 371.169 282.72C371.249 282.787 371.316 282.853 371.369 282.92L374.029 286.38L376.689 282.94C376.743 282.873 376.803 282.8 376.869 282.72C376.949 282.64 377.063 282.6 377.209 282.6H378.189C378.309 282.6 378.409 282.64 378.489 282.72C378.569 282.8 378.609 282.9 378.609 283.02C378.609 283.073 378.596 283.127 378.569 283.18C378.556 283.233 378.523 283.3 378.469 283.38L375.169 287.72L378.649 292.22C378.703 292.3 378.736 292.367 378.749 292.42C378.776 292.473 378.789 292.527 378.789 292.58C378.789 292.7 378.749 292.8 378.669 292.88C378.589 292.96 378.489 293 378.369 293H377.309C377.176 293 377.069 292.967 376.989 292.9C376.909 292.833 376.843 292.767 376.789 292.7L373.969 289.04L371.149 292.7C371.096 292.753 371.029 292.82 370.949 292.9C370.883 292.967 370.776 293 370.629 293H369.609Z" fill="#646C6D"/>
<path d="M385.751 293.2C384.977 293.2 384.264 293.107 383.611 292.92C382.971 292.72 382.417 292.44 381.951 292.08C381.497 291.707 381.144 291.26 380.891 290.74C380.637 290.22 380.511 289.633 380.511 288.98C380.511 288.167 380.704 287.467 381.091 286.88C381.491 286.293 382.017 285.847 382.671 285.54C382.151 285.233 381.744 284.833 381.451 284.34C381.157 283.847 381.011 283.26 381.011 282.58C381.011 281.78 381.204 281.107 381.591 280.56C381.991 280 382.544 279.567 383.251 279.26C383.971 278.953 384.804 278.8 385.751 278.8C386.684 278.8 387.504 278.953 388.211 279.26C388.931 279.553 389.484 279.98 389.871 280.54C390.271 281.1 390.471 281.773 390.471 282.56C390.471 283.24 390.324 283.833 390.031 284.34C389.737 284.833 389.337 285.233 388.831 285.54C389.484 285.847 390.004 286.293 390.391 286.88C390.791 287.467 390.991 288.167 390.991 288.98C390.991 289.847 390.771 290.6 390.331 291.24C389.891 291.867 389.277 292.353 388.491 292.7C387.704 293.033 386.791 293.2 385.751 293.2ZM385.751 291.6C386.364 291.6 386.917 291.493 387.411 291.28C387.904 291.067 388.297 290.767 388.591 290.38C388.884 289.98 389.031 289.513 389.031 288.98C389.031 288.433 388.884 287.973 388.591 287.6C388.297 287.213 387.904 286.92 387.411 286.72C386.917 286.507 386.364 286.4 385.751 286.4C385.137 286.4 384.577 286.507 384.071 286.72C383.577 286.92 383.184 287.213 382.891 287.6C382.597 287.973 382.451 288.433 382.451 288.98C382.451 289.513 382.597 289.98 382.891 290.38C383.184 290.767 383.577 291.067 384.071 291.28C384.577 291.493 385.137 291.6 385.751 291.6ZM385.751 284.82C386.257 284.82 386.724 284.727 387.151 284.54C387.591 284.353 387.937 284.1 388.191 283.78C388.457 283.46 388.591 283.073 388.591 282.62C388.591 282.167 388.464 281.773 388.211 281.44C387.971 281.107 387.631 280.853 387.191 280.68C386.764 280.493 386.284 280.4 385.751 280.4C385.217 280.4 384.731 280.493 384.291 280.68C383.864 280.853 383.524 281.107 383.271 281.44C383.017 281.773 382.891 282.167 382.891 282.62C382.891 283.087 383.017 283.487 383.271 283.82C383.524 284.14 383.864 284.387 384.291 284.56C384.731 284.733 385.217 284.82 385.751 284.82Z" fill="#646C6D"/>
<path d="M375.524 227C375.391 227 375.277 226.96 375.184 226.88C375.104 226.787 375.064 226.673 375.064 226.54V215.34L371.744 217.9C371.637 217.98 371.524 218.013 371.404 218C371.284 217.987 371.184 217.927 371.104 217.82L370.584 217.16C370.504 217.04 370.471 216.92 370.484 216.8C370.511 216.68 370.577 216.58 370.684 216.5L375.044 213.14C375.137 213.073 375.224 213.033 375.304 213.02C375.384 213.007 375.471 213 375.564 213H376.584C376.717 213 376.824 213.047 376.904 213.14C376.984 213.22 377.024 213.327 377.024 213.46V226.54C377.024 226.673 376.984 226.787 376.904 226.88C376.824 226.96 376.717 227 376.584 227H375.524Z" fill="#646C6D"/>
<path d="M384.719 227.2C383.612 227.2 382.672 226.98 381.899 226.54C381.125 226.087 380.532 225.5 380.119 224.78C379.719 224.047 379.519 223.253 379.519 222.4C379.519 222 379.565 221.62 379.659 221.26C379.765 220.887 379.892 220.54 380.039 220.22C380.199 219.887 380.352 219.593 380.499 219.34C380.659 219.073 380.799 218.86 380.919 218.7L384.719 213.4C384.785 213.333 384.865 213.253 384.959 213.16C385.052 213.053 385.192 213 385.379 213H386.439C386.559 213 386.652 213.047 386.719 213.14C386.799 213.22 386.839 213.32 386.839 213.44C386.839 213.493 386.832 213.547 386.819 213.6C386.805 213.64 386.785 213.673 386.759 213.7L383.839 217.78C383.999 217.727 384.179 217.693 384.379 217.68C384.592 217.653 384.792 217.64 384.979 217.64C385.712 217.653 386.379 217.787 386.979 218.04C387.579 218.293 388.092 218.64 388.519 219.08C388.959 219.507 389.292 220.007 389.519 220.58C389.745 221.14 389.859 221.74 389.859 222.38C389.859 223.22 389.659 224.007 389.259 224.74C388.859 225.473 388.272 226.067 387.499 226.52C386.739 226.973 385.812 227.2 384.719 227.2ZM384.699 225.5C385.259 225.5 385.779 225.38 386.259 225.14C386.739 224.9 387.125 224.553 387.419 224.1C387.725 223.633 387.879 223.067 387.879 222.4C387.879 221.72 387.732 221.153 387.439 220.7C387.145 220.233 386.752 219.887 386.259 219.66C385.779 219.42 385.259 219.3 384.699 219.3C384.139 219.3 383.619 219.42 383.139 219.66C382.659 219.887 382.265 220.233 381.959 220.7C381.665 221.153 381.519 221.72 381.519 222.4C381.519 223.067 381.665 223.633 381.959 224.1C382.265 224.553 382.659 224.9 383.139 225.14C383.619 225.38 384.139 225.5 384.699 225.5Z" fill="#646C6D"/>
<path d="M391.609 227C391.503 227 391.403 226.96 391.309 226.88C391.229 226.8 391.189 226.7 391.189 226.58C391.189 226.54 391.196 226.493 391.209 226.44C391.236 226.373 391.276 226.3 391.329 226.22L394.809 221.68L391.549 217.38C391.496 217.3 391.456 217.233 391.429 217.18C391.416 217.127 391.409 217.073 391.409 217.02C391.409 216.9 391.449 216.8 391.529 216.72C391.609 216.64 391.709 216.6 391.829 216.6H392.849C392.996 216.6 393.103 216.64 393.169 216.72C393.249 216.787 393.316 216.853 393.369 216.92L396.029 220.38L398.689 216.94C398.743 216.873 398.803 216.8 398.869 216.72C398.949 216.64 399.063 216.6 399.209 216.6H400.189C400.309 216.6 400.409 216.64 400.489 216.72C400.569 216.8 400.609 216.9 400.609 217.02C400.609 217.073 400.596 217.127 400.569 217.18C400.556 217.233 400.523 217.3 400.469 217.38L397.169 221.72L400.649 226.22C400.703 226.3 400.736 226.367 400.749 226.42C400.776 226.473 400.789 226.527 400.789 226.58C400.789 226.7 400.749 226.8 400.669 226.88C400.589 226.96 400.489 227 400.369 227H399.309C399.176 227 399.069 226.967 398.989 226.9C398.909 226.833 398.843 226.767 398.789 226.7L395.969 223.04L393.149 226.7C393.096 226.753 393.029 226.82 392.949 226.9C392.883 226.967 392.776 227 392.629 227H391.609Z" fill="#646C6D"/>
<path d="M406.911 227C406.777 227 406.664 226.96 406.571 226.88C406.491 226.787 406.451 226.673 406.451 226.54V215.34L403.131 217.9C403.024 217.98 402.911 218.013 402.791 218C402.671 217.987 402.571 217.927 402.491 217.82L401.971 217.16C401.891 217.04 401.857 216.92 401.871 216.8C401.897 216.68 401.964 216.58 402.071 216.5L406.431 213.14C406.524 213.073 406.611 213.033 406.691 213.02C406.771 213.007 406.857 213 406.951 213H407.971C408.104 213 408.211 213.047 408.291 213.14C408.371 213.22 408.411 213.327 408.411 213.46V226.54C408.411 226.673 408.371 226.787 408.291 226.88C408.211 226.96 408.104 227 407.971 227H406.911Z" fill="#646C6D"/>
<path d="M416.105 227.2C414.999 227.2 414.059 226.98 413.285 226.54C412.512 226.087 411.919 225.5 411.505 224.78C411.105 224.047 410.905 223.253 410.905 222.4C410.905 222 410.952 221.62 411.045 221.26C411.152 220.887 411.279 220.54 411.425 220.22C411.585 219.887 411.739 219.593 411.885 219.34C412.045 219.073 412.185 218.86 412.305 218.7L416.105 213.4C416.172 213.333 416.252 213.253 416.345 213.16C416.439 213.053 416.579 213 416.765 213H417.825C417.945 213 418.039 213.047 418.105 213.14C418.185 213.22 418.225 213.32 418.225 213.44C418.225 213.493 418.219 213.547 418.205 213.6C418.192 213.64 418.172 213.673 418.145 213.7L415.225 217.78C415.385 217.727 415.565 217.693 415.765 217.68C415.979 217.653 416.179 217.64 416.365 217.64C417.099 217.653 417.765 217.787 418.365 218.04C418.965 218.293 419.479 218.64 419.905 219.08C420.345 219.507 420.679 220.007 420.905 220.58C421.132 221.14 421.245 221.74 421.245 222.38C421.245 223.22 421.045 224.007 420.645 224.74C420.245 225.473 419.659 226.067 418.885 226.52C418.125 226.973 417.199 227.2 416.105 227.2ZM416.085 225.5C416.645 225.5 417.165 225.38 417.645 225.14C418.125 224.9 418.512 224.553 418.805 224.1C419.112 223.633 419.265 223.067 419.265 222.4C419.265 221.72 419.119 221.153 418.825 220.7C418.532 220.233 418.139 219.887 417.645 219.66C417.165 219.42 416.645 219.3 416.085 219.3C415.525 219.3 415.005 219.42 414.525 219.66C414.045 219.887 413.652 220.233 413.345 220.7C413.052 221.153 412.905 221.72 412.905 222.4C412.905 223.067 413.052 223.633 413.345 224.1C413.652 224.553 414.045 224.9 414.525 225.14C415.005 225.38 415.525 225.5 416.085 225.5Z" fill="#646C6D"/>
<path d="M416.819 95.2C415.979 95.2 415.246 95.1 414.619 94.9C413.993 94.6867 413.466 94.4067 413.039 94.06C412.613 93.7134 412.286 93.3334 412.059 92.92C411.846 92.5067 411.733 92.08 411.719 91.64C411.719 91.52 411.759 91.4267 411.839 91.36C411.919 91.2934 412.019 91.26 412.139 91.26H413.119C413.239 91.26 413.346 91.2867 413.439 91.34C413.533 91.3934 413.613 91.5067 413.679 91.68C413.813 92.16 414.039 92.5334 414.359 92.8C414.693 93.0667 415.073 93.2534 415.499 93.36C415.939 93.4534 416.379 93.5 416.819 93.5C417.739 93.5 418.486 93.28 419.059 92.84C419.633 92.4 419.919 91.7534 419.919 90.9C419.919 90.0334 419.659 89.4134 419.139 89.04C418.619 88.6667 417.899 88.48 416.979 88.48H415.079C414.946 88.48 414.833 88.44 414.739 88.36C414.659 88.28 414.619 88.1667 414.619 88.02V87.48C414.619 87.36 414.639 87.26 414.679 87.18C414.733 87.0867 414.786 87.0067 414.839 86.94L418.719 82.7H412.819C412.686 82.7 412.573 82.66 412.479 82.58C412.399 82.5 412.359 82.3867 412.359 82.24V81.48C412.359 81.3334 412.399 81.22 412.479 81.14C412.573 81.0467 412.686 81 412.819 81H420.799C420.946 81 421.059 81.0467 421.139 81.14C421.233 81.22 421.279 81.3334 421.279 81.48V82.2C421.279 82.2934 421.253 82.38 421.199 82.46C421.159 82.5267 421.113 82.5934 421.059 82.66L417.199 86.96L417.519 86.98C418.399 87.0067 419.166 87.1667 419.819 87.46C420.486 87.7534 420.999 88.1934 421.359 88.78C421.733 89.3534 421.919 90.08 421.919 90.96C421.919 91.8534 421.699 92.62 421.259 93.26C420.819 93.8867 420.213 94.3667 419.439 94.7C418.666 95.0334 417.793 95.2 416.819 95.2Z" fill="#646C6D"/>
<path d="M424.311 95C424.178 95 424.064 94.96 423.971 94.88C423.891 94.7867 423.851 94.6734 423.851 94.54V93.9C423.851 93.78 423.884 93.6467 423.951 93.5C424.018 93.3534 424.151 93.1934 424.351 93.02L428.591 88.78C429.271 88.2067 429.804 87.72 430.191 87.32C430.591 86.9067 430.871 86.5134 431.031 86.14C431.204 85.7667 431.291 85.38 431.291 84.98C431.291 84.22 431.078 83.62 430.651 83.18C430.224 82.7267 429.591 82.5 428.751 82.5C428.218 82.5 427.758 82.6134 427.371 82.84C426.984 83.0534 426.678 83.3534 426.451 83.74C426.238 84.1134 426.098 84.54 426.031 85.02C426.004 85.1934 425.931 85.3134 425.811 85.38C425.704 85.4467 425.604 85.48 425.511 85.48H424.471C424.351 85.48 424.251 85.4467 424.171 85.38C424.091 85.3 424.051 85.2067 424.051 85.1C424.064 84.5934 424.171 84.0867 424.371 83.58C424.571 83.06 424.864 82.5934 425.251 82.18C425.651 81.7667 426.138 81.4334 426.711 81.18C427.298 80.9134 427.978 80.78 428.751 80.78C429.804 80.78 430.664 80.9734 431.331 81.36C432.011 81.7334 432.511 82.2334 432.831 82.86C433.151 83.4867 433.311 84.1734 433.311 84.92C433.311 85.5067 433.211 86.0467 433.011 86.54C432.811 87.02 432.518 87.4934 432.131 87.96C431.758 88.4134 431.291 88.88 430.731 89.36L426.891 93.26H433.131C433.278 93.26 433.391 93.3 433.471 93.38C433.564 93.46 433.611 93.5734 433.611 93.72V94.54C433.611 94.6734 433.564 94.7867 433.471 94.88C433.391 94.96 433.278 95 433.131 95H424.311Z" fill="#646C6D"/>
<path d="M435.609 95C435.503 95 435.403 94.96 435.309 94.88C435.229 94.8 435.189 94.7 435.189 94.58C435.189 94.54 435.196 94.4934 435.209 94.44C435.236 94.3734 435.276 94.3 435.329 94.22L438.809 89.68L435.549 85.38C435.496 85.3 435.456 85.2334 435.429 85.18C435.416 85.1267 435.409 85.0734 435.409 85.02C435.409 84.9 435.449 84.8 435.529 84.72C435.609 84.64 435.709 84.6 435.829 84.6H436.849C436.996 84.6 437.103 84.64 437.169 84.72C437.249 84.7867 437.316 84.8534 437.369 84.92L440.029 88.38L442.689 84.94C442.743 84.8734 442.803 84.8 442.869 84.72C442.949 84.64 443.063 84.6 443.209 84.6H444.189C444.309 84.6 444.409 84.64 444.489 84.72C444.569 84.8 444.609 84.9 444.609 85.02C444.609 85.0734 444.596 85.1267 444.569 85.18C444.556 85.2334 444.523 85.3 444.469 85.38L441.169 89.72L444.649 94.22C444.703 94.3 444.736 94.3667 444.749 94.42C444.776 94.4734 444.789 94.5267 444.789 94.58C444.789 94.7 444.749 94.8 444.669 94.88C444.589 94.96 444.489 95 444.369 95H443.309C443.176 95 443.069 94.9667 442.989 94.9C442.909 94.8334 442.843 94.7667 442.789 94.7L439.969 91.04L437.149 94.7C437.096 94.7534 437.029 94.82 436.949 94.9C436.883 94.9667 436.776 95 436.629 95H435.609Z" fill="#646C6D"/>
<path d="M451.351 95.2C450.511 95.2 449.777 95.1 449.151 94.9C448.524 94.6867 447.997 94.4067 447.571 94.06C447.144 93.7134 446.817 93.3334 446.591 92.92C446.377 92.5067 446.264 92.08 446.251 91.64C446.251 91.52 446.291 91.4267 446.371 91.36C446.451 91.2934 446.551 91.26 446.671 91.26H447.651C447.771 91.26 447.877 91.2867 447.971 91.34C448.064 91.3934 448.144 91.5067 448.211 91.68C448.344 92.16 448.571 92.5334 448.891 92.8C449.224 93.0667 449.604 93.2534 450.031 93.36C450.471 93.4534 450.911 93.5 451.351 93.5C452.271 93.5 453.017 93.28 453.591 92.84C454.164 92.4 454.451 91.7534 454.451 90.9C454.451 90.0334 454.191 89.4134 453.671 89.04C453.151 88.6667 452.431 88.48 451.511 88.48H449.611C449.477 88.48 449.364 88.44 449.271 88.36C449.191 88.28 449.151 88.1667 449.151 88.02V87.48C449.151 87.36 449.171 87.26 449.211 87.18C449.264 87.0867 449.317 87.0067 449.371 86.94L453.251 82.7H447.351C447.217 82.7 447.104 82.66 447.011 82.58C446.931 82.5 446.891 82.3867 446.891 82.24V81.48C446.891 81.3334 446.931 81.22 447.011 81.14C447.104 81.0467 447.217 81 447.351 81H455.331C455.477 81 455.591 81.0467 455.671 81.14C455.764 81.22 455.811 81.3334 455.811 81.48V82.2C455.811 82.2934 455.784 82.38 455.731 82.46C455.691 82.5267 455.644 82.5934 455.591 82.66L451.731 86.96L452.051 86.98C452.931 87.0067 453.697 87.1667 454.351 87.46C455.017 87.7534 455.531 88.1934 455.891 88.78C456.264 89.3534 456.451 90.08 456.451 90.96C456.451 91.8534 456.231 92.62 455.791 93.26C455.351 93.8867 454.744 94.3667 453.971 94.7C453.197 95.0334 452.324 95.2 451.351 95.2Z" fill="#646C6D"/>
<path d="M458.842 95C458.709 95 458.596 94.96 458.502 94.88C458.422 94.7867 458.382 94.6734 458.382 94.54V93.9C458.382 93.78 458.416 93.6467 458.482 93.5C458.549 93.3534 458.682 93.1934 458.882 93.02L463.122 88.78C463.802 88.2067 464.336 87.72 464.722 87.32C465.122 86.9067 465.402 86.5134 465.562 86.14C465.736 85.7667 465.822 85.38 465.822 84.98C465.822 84.22 465.609 83.62 465.182 83.18C464.756 82.7267 464.122 82.5 463.282 82.5C462.749 82.5 462.289 82.6134 461.902 82.84C461.516 83.0534 461.209 83.3534 460.982 83.74C460.769 84.1134 460.629 84.54 460.562 85.02C460.536 85.1934 460.462 85.3134 460.342 85.38C460.236 85.4467 460.136 85.48 460.042 85.48H459.002C458.882 85.48 458.782 85.4467 458.702 85.38C458.622 85.3 458.582 85.2067 458.582 85.1C458.596 84.5934 458.702 84.0867 458.902 83.58C459.102 83.06 459.396 82.5934 459.782 82.18C460.182 81.7667 460.669 81.4334 461.242 81.18C461.829 80.9134 462.509 80.78 463.282 80.78C464.336 80.78 465.196 80.9734 465.862 81.36C466.542 81.7334 467.042 82.2334 467.362 82.86C467.682 83.4867 467.842 84.1734 467.842 84.92C467.842 85.5067 467.742 86.0467 467.542 86.54C467.342 87.02 467.049 87.4934 466.662 87.96C466.289 88.4134 465.822 88.88 465.262 89.36L461.422 93.26H467.662C467.809 93.26 467.922 93.3 468.002 93.38C468.096 93.46 468.142 93.5734 468.142 93.72V94.54C468.142 94.6734 468.096 94.7867 468.002 94.88C467.922 94.96 467.809 95 467.662 95H458.842Z" fill="#646C6D"/>
<path d="M152.297 183.2C151.19 183.2 150.25 182.98 149.477 182.54C148.703 182.087 148.11 181.5 147.697 180.78C147.297 180.047 147.097 179.253 147.097 178.4C147.097 178 147.143 177.62 147.237 177.26C147.343 176.887 147.47 176.54 147.617 176.22C147.777 175.887 147.93 175.593 148.077 175.34C148.237 175.073 148.377 174.86 148.497 174.7L152.297 169.4C152.363 169.333 152.443 169.253 152.537 169.16C152.63 169.053 152.77 169 152.957 169H154.017C154.137 169 154.23 169.047 154.297 169.14C154.377 169.22 154.417 169.32 154.417 169.44C154.417 169.493 154.41 169.547 154.397 169.6C154.383 169.64 154.363 169.673 154.337 169.7L151.417 173.78C151.577 173.727 151.757 173.693 151.957 173.68C152.17 173.653 152.37 173.64 152.557 173.64C153.29 173.653 153.957 173.787 154.557 174.04C155.157 174.293 155.67 174.64 156.097 175.08C156.537 175.507 156.87 176.007 157.097 176.58C157.323 177.14 157.437 177.74 157.437 178.38C157.437 179.22 157.237 180.007 156.837 180.74C156.437 181.473 155.85 182.067 155.077 182.52C154.317 182.973 153.39 183.2 152.297 183.2ZM152.277 181.5C152.837 181.5 153.357 181.38 153.837 181.14C154.317 180.9 154.703 180.553 154.997 180.1C155.303 179.633 155.457 179.067 155.457 178.4C155.457 177.72 155.31 177.153 155.017 176.7C154.723 176.233 154.33 175.887 153.837 175.66C153.357 175.42 152.837 175.3 152.277 175.3C151.717 175.3 151.197 175.42 150.717 175.66C150.237 175.887 149.843 176.233 149.537 176.7C149.243 177.153 149.097 177.72 149.097 178.4C149.097 179.067 149.243 179.633 149.537 180.1C149.843 180.553 150.237 180.9 150.717 181.14C151.197 181.38 151.717 181.5 152.277 181.5Z" fill="#646C6D"/>
<path d="M166.207 183C166.074 183 165.961 182.96 165.867 182.88C165.787 182.787 165.747 182.673 165.747 182.54V179.66H159.267C159.134 179.66 159.021 179.62 158.927 179.54C158.847 179.447 158.807 179.333 158.807 179.2V178.4C158.807 178.347 158.821 178.267 158.847 178.16C158.887 178.04 158.947 177.92 159.027 177.8L165.027 169.34C165.187 169.113 165.434 169 165.767 169H167.207C167.341 169 167.447 169.047 167.527 169.14C167.621 169.22 167.667 169.327 167.667 169.46V177.92H169.467C169.614 177.92 169.727 177.967 169.807 178.06C169.901 178.14 169.947 178.247 169.947 178.38V179.2C169.947 179.333 169.901 179.447 169.807 179.54C169.727 179.62 169.621 179.66 169.487 179.66H167.667V182.54C167.667 182.673 167.621 182.787 167.527 182.88C167.447 182.96 167.341 183 167.207 183H166.207ZM160.947 177.96H165.767V171.1L160.947 177.96Z" fill="#646C6D"/>
<path d="M171.609 183C171.503 183 171.403 182.96 171.309 182.88C171.229 182.8 171.189 182.7 171.189 182.58C171.189 182.54 171.196 182.493 171.209 182.44C171.236 182.373 171.276 182.3 171.329 182.22L174.809 177.68L171.549 173.38C171.496 173.3 171.456 173.233 171.429 173.18C171.416 173.127 171.409 173.073 171.409 173.02C171.409 172.9 171.449 172.8 171.529 172.72C171.609 172.64 171.709 172.6 171.829 172.6H172.849C172.996 172.6 173.103 172.64 173.169 172.72C173.249 172.787 173.316 172.853 173.369 172.92L176.029 176.38L178.689 172.94C178.743 172.873 178.803 172.8 178.869 172.72C178.949 172.64 179.063 172.6 179.209 172.6H180.189C180.309 172.6 180.409 172.64 180.489 172.72C180.569 172.8 180.609 172.9 180.609 173.02C180.609 173.073 180.596 173.127 180.569 173.18C180.556 173.233 180.523 173.3 180.469 173.38L177.169 177.72L180.649 182.22C180.703 182.3 180.736 182.367 180.749 182.42C180.776 182.473 180.789 182.527 180.789 182.58C180.789 182.7 180.749 182.8 180.669 182.88C180.589 182.96 180.489 183 180.369 183H179.309C179.176 183 179.069 182.967 178.989 182.9C178.909 182.833 178.843 182.767 178.789 182.7L175.969 179.04L173.149 182.7C173.096 182.753 173.029 182.82 172.949 182.9C172.883 182.967 172.776 183 172.629 183H171.609Z" fill="#646C6D"/>
<path d="M187.551 183.2C186.444 183.2 185.504 182.98 184.731 182.54C183.957 182.087 183.364 181.5 182.951 180.78C182.551 180.047 182.351 179.253 182.351 178.4C182.351 178 182.397 177.62 182.491 177.26C182.597 176.887 182.724 176.54 182.871 176.22C183.031 175.887 183.184 175.593 183.331 175.34C183.491 175.073 183.631 174.86 183.751 174.7L187.551 169.4C187.617 169.333 187.697 169.253 187.791 169.16C187.884 169.053 188.024 169 188.211 169H189.271C189.391 169 189.484 169.047 189.551 169.14C189.631 169.22 189.671 169.32 189.671 169.44C189.671 169.493 189.664 169.547 189.651 169.6C189.637 169.64 189.617 169.673 189.591 169.7L186.671 173.78C186.831 173.727 187.011 173.693 187.211 173.68C187.424 173.653 187.624 173.64 187.811 173.64C188.544 173.653 189.211 173.787 189.811 174.04C190.411 174.293 190.924 174.64 191.351 175.08C191.791 175.507 192.124 176.007 192.351 176.58C192.577 177.14 192.691 177.74 192.691 178.38C192.691 179.22 192.491 180.007 192.091 180.74C191.691 181.473 191.104 182.067 190.331 182.52C189.571 182.973 188.644 183.2 187.551 183.2ZM187.531 181.5C188.091 181.5 188.611 181.38 189.091 181.14C189.571 180.9 189.957 180.553 190.251 180.1C190.557 179.633 190.711 179.067 190.711 178.4C190.711 177.72 190.564 177.153 190.271 176.7C189.977 176.233 189.584 175.887 189.091 175.66C188.611 175.42 188.091 175.3 187.531 175.3C186.971 175.3 186.451 175.42 185.971 175.66C185.491 175.887 185.097 176.233 184.791 176.7C184.497 177.153 184.351 177.72 184.351 178.4C184.351 179.067 184.497 179.633 184.791 180.1C185.097 180.553 185.491 180.9 185.971 181.14C186.451 181.38 186.971 181.5 187.531 181.5Z" fill="#646C6D"/>
<path d="M201.461 183C201.328 183 201.215 182.96 201.121 182.88C201.041 182.787 201.001 182.673 201.001 182.54V179.66H194.521C194.388 179.66 194.275 179.62 194.181 179.54C194.101 179.447 194.061 179.333 194.061 179.2V178.4C194.061 178.347 194.075 178.267 194.101 178.16C194.141 178.04 194.201 177.92 194.281 177.8L200.281 169.34C200.441 169.113 200.688 169 201.021 169H202.461C202.595 169 202.701 169.047 202.781 169.14C202.875 169.22 202.921 169.327 202.921 169.46V177.92H204.721C204.868 177.92 204.981 177.967 205.061 178.06C205.155 178.14 205.201 178.247 205.201 178.38V179.2C205.201 179.333 205.155 179.447 205.061 179.54C204.981 179.62 204.875 179.66 204.741 179.66H202.921V182.54C202.921 182.673 202.875 182.787 202.781 182.88C202.701 182.96 202.595 183 202.461 183H201.461ZM196.201 177.96H201.021V171.1L196.201 177.96Z" fill="#646C6D"/>
<path d="M354.288 336.5C354.261 336.5 354.239 336.492 354.22 336.476C354.204 336.457 354.196 336.435 354.196 336.408V336.28C354.196 336.256 354.203 336.229 354.216 336.2C354.229 336.171 354.256 336.139 354.296 336.104L355.144 335.256C355.28 335.141 355.387 335.044 355.464 334.964C355.544 334.881 355.6 334.803 355.632 334.728C355.667 334.653 355.684 334.576 355.684 334.496C355.684 334.344 355.641 334.224 355.556 334.136C355.471 334.045 355.344 334 355.176 334C355.069 334 354.977 334.023 354.9 334.068C354.823 334.111 354.761 334.171 354.716 334.248C354.673 334.323 354.645 334.408 354.632 334.504C354.627 334.539 354.612 334.563 354.588 334.576C354.567 334.589 354.547 334.596 354.528 334.596H354.32C354.296 334.596 354.276 334.589 354.26 334.576C354.244 334.56 354.236 334.541 354.236 334.52C354.239 334.419 354.26 334.317 354.3 334.216C354.34 334.112 354.399 334.019 354.476 333.936C354.556 333.853 354.653 333.787 354.768 333.736C354.885 333.683 355.021 333.656 355.176 333.656C355.387 333.656 355.559 333.695 355.692 333.772C355.828 333.847 355.928 333.947 355.992 334.072C356.056 334.197 356.088 334.335 356.088 334.484C356.088 334.601 356.068 334.709 356.028 334.808C355.988 334.904 355.929 334.999 355.852 335.092C355.777 335.183 355.684 335.276 355.572 335.372L354.804 336.152H356.052C356.081 336.152 356.104 336.16 356.12 336.176C356.139 336.192 356.148 336.215 356.148 336.244V336.408C356.148 336.435 356.139 336.457 356.12 336.476C356.104 336.492 356.081 336.5 356.052 336.5H354.288Z" fill="#646C6D"/>
<path d="M356.548 336.5C356.526 336.5 356.506 336.492 356.488 336.476C356.472 336.46 356.464 336.44 356.464 336.416C356.464 336.408 356.465 336.399 356.468 336.388C356.473 336.375 356.481 336.36 356.492 336.344L357.188 335.436L356.536 334.576C356.525 334.56 356.517 334.547 356.512 334.536C356.509 334.525 356.508 334.515 356.508 334.504C356.508 334.48 356.516 334.46 356.532 334.444C356.548 334.428 356.568 334.42 356.592 334.42H356.796C356.825 334.42 356.846 334.428 356.86 334.444C356.876 334.457 356.889 334.471 356.9 334.484L357.432 335.176L357.964 334.488C357.974 334.475 357.986 334.46 358 334.444C358.016 334.428 358.038 334.42 358.068 334.42H358.264C358.288 334.42 358.308 334.428 358.324 334.444C358.34 334.46 358.348 334.48 358.348 334.504C358.348 334.515 358.345 334.525 358.34 334.536C358.337 334.547 358.33 334.56 358.32 334.576L357.66 335.444L358.356 336.344C358.366 336.36 358.373 336.373 358.376 336.384C358.381 336.395 358.384 336.405 358.384 336.416C358.384 336.44 358.376 336.46 358.36 336.476C358.344 336.492 358.324 336.5 358.3 336.5H358.088C358.061 336.5 358.04 336.493 358.024 336.48C358.008 336.467 357.994 336.453 357.984 336.44L357.42 335.708L356.856 336.44C356.845 336.451 356.832 336.464 356.816 336.48C356.802 336.493 356.781 336.5 356.752 336.5H356.548Z" fill="#646C6D"/>
<path d="M358.792 336.5C358.765 336.5 358.743 336.492 358.724 336.476C358.708 336.457 358.7 336.435 358.7 336.408V336.28C358.7 336.256 358.707 336.229 358.72 336.2C358.733 336.171 358.76 336.139 358.8 336.104L359.648 335.256C359.784 335.141 359.891 335.044 359.968 334.964C360.048 334.881 360.104 334.803 360.136 334.728C360.171 334.653 360.188 334.576 360.188 334.496C360.188 334.344 360.145 334.224 360.06 334.136C359.975 334.045 359.848 334 359.68 334C359.573 334 359.481 334.023 359.404 334.068C359.327 334.111 359.265 334.171 359.22 334.248C359.177 334.323 359.149 334.408 359.136 334.504C359.131 334.539 359.116 334.563 359.092 334.576C359.071 334.589 359.051 334.596 359.032 334.596H358.824C358.8 334.596 358.78 334.589 358.764 334.576C358.748 334.56 358.74 334.541 358.74 334.52C358.743 334.419 358.764 334.317 358.804 334.216C358.844 334.112 358.903 334.019 358.98 333.936C359.06 333.853 359.157 333.787 359.272 333.736C359.389 333.683 359.525 333.656 359.68 333.656C359.891 333.656 360.063 333.695 360.196 333.772C360.332 333.847 360.432 333.947 360.496 334.072C360.56 334.197 360.592 334.335 360.592 334.484C360.592 334.601 360.572 334.709 360.532 334.808C360.492 334.904 360.433 334.999 360.356 335.092C360.281 335.183 360.188 335.276 360.076 335.372L359.308 336.152H360.556C360.585 336.152 360.608 336.16 360.624 336.176C360.643 336.192 360.652 336.215 360.652 336.244V336.408C360.652 336.435 360.643 336.457 360.624 336.476C360.608 336.492 360.585 336.5 360.556 336.5H358.792Z" fill="#646C6D"/>
<path d="M354.276 344.2C354.269 344.2 354.264 344.198 354.259 344.194C354.255 344.189 354.253 344.184 354.253 344.177V343.617L354.087 343.745C354.082 343.749 354.076 343.751 354.07 343.75C354.064 343.749 354.059 343.746 354.055 343.741L354.029 343.708C354.025 343.702 354.023 343.696 354.024 343.69C354.025 343.684 354.029 343.679 354.034 343.675L354.252 343.507C354.257 343.504 354.261 343.502 354.265 343.501C354.269 343.5 354.273 343.5 354.278 343.5H354.329C354.336 343.5 354.341 343.502 354.345 343.507C354.349 343.511 354.351 343.516 354.351 343.523V344.177C354.351 344.184 354.349 344.189 354.345 344.194C354.341 344.198 354.336 344.2 354.329 344.2H354.276Z" fill="#646C6D"/>
<path d="M354.478 344.2C354.472 344.2 354.467 344.198 354.463 344.194C354.459 344.19 354.457 344.185 354.457 344.179C354.457 344.179 354.457 344.175 354.458 344.172C354.459 344.169 354.461 344.165 354.464 344.161L354.638 343.934L354.475 343.719C354.472 343.715 354.47 343.712 354.469 343.709C354.468 343.706 354.468 343.704 354.468 343.701C354.468 343.695 354.47 343.69 354.474 343.686C354.478 343.682 354.483 343.68 354.489 343.68H354.54C354.547 343.68 354.552 343.682 354.556 343.686C354.56 343.689 354.563 343.693 354.566 343.696L354.699 343.869L354.832 343.697C354.834 343.694 354.837 343.69 354.841 343.686C354.845 343.682 354.85 343.68 354.858 343.68H354.907C354.913 343.68 354.918 343.682 354.922 343.686C354.926 343.69 354.928 343.695 354.928 343.701C354.928 343.704 354.927 343.706 354.926 343.709C354.925 343.712 354.923 343.715 354.921 343.719L354.756 343.936L354.93 344.161C354.932 344.165 354.934 344.168 354.935 344.171C354.936 344.174 354.937 344.176 354.937 344.179C354.937 344.185 354.935 344.19 354.931 344.194C354.927 344.198 354.922 344.2 354.916 344.2H354.863C354.856 344.2 354.851 344.198 354.847 344.195C354.843 344.192 354.839 344.188 354.837 344.185L354.696 344.002L354.555 344.185C354.552 344.188 354.549 344.191 354.545 344.195C354.541 344.198 354.536 344.2 354.529 344.2H354.478Z" fill="#646C6D"/>
<path d="M355.243 344.2C355.236 344.2 355.23 344.198 355.226 344.194C355.222 344.189 355.22 344.184 355.22 344.177V343.617L355.054 343.745C355.048 343.749 355.043 343.751 355.037 343.75C355.031 343.749 355.026 343.746 355.022 343.741L354.996 343.708C354.992 343.702 354.99 343.696 354.991 343.69C354.992 343.684 354.995 343.679 355.001 343.675L355.219 343.507C355.223 343.504 355.228 343.502 355.232 343.501C355.236 343.5 355.24 343.5 355.245 343.5H355.296C355.302 343.5 355.308 343.502 355.312 343.507C355.316 343.511 355.318 343.516 355.318 343.523V344.177C355.318 344.184 355.316 344.189 355.312 344.194C355.308 344.198 355.302 344.2 355.296 344.2H355.243Z" fill="#646C6D"/>
</svg>
