<svg width="448" height="232" viewBox="0 0 448 232" fill="none" xmlns="http://www.w3.org/2000/svg">
<rect x="8.00012" y="168" width="32" height="32" fill="#FAB278"/>
<rect x="40" y="168" width="32" height="32" fill="#FAB278"/>
<rect x="72" y="168" width="32" height="32" fill="#FAB278"/>
<rect x="72" y="136" width="32" height="32" fill="#FAB278"/>
<rect x="104" y="168" width="32" height="32" fill="#FAB278"/>
<rect x="136" y="168" width="32" height="32" fill="#FAB278"/>
<rect x="104" y="136" width="32" height="32" fill="#FAB278"/>
<rect x="136" y="136" width="32" height="32" fill="#FAB278"/>
<rect x="104" y="104" width="32" height="32" fill="#FAB278"/>
<rect x="104" y="72" width="32" height="32" fill="#FAB278"/>
<rect x="40" y="136" width="32" height="32" fill="#FAB278"/>
<rect x="72" y="104" width="32" height="32" fill="#FAB278"/>
<rect x="248" y="184" width="16" height="16" fill="#FAB278"/>
<rect x="264" y="184" width="16" height="16" fill="#FAB278"/>
<rect x="264" y="168" width="16" height="16" fill="#FAB278"/>
<rect x="280" y="168" width="16" height="16" fill="#FAB278"/>
<rect x="280" y="184" width="16" height="16" fill="#FAB278"/>
<rect x="296" y="184" width="16" height="16" fill="#FAB278"/>
<rect x="296" y="168" width="16" height="16" fill="#FAB278"/>
<rect x="280" y="152" width="16" height="16" fill="#FAB278"/>
<rect x="296" y="152" width="16" height="16" fill="#FAB278"/>
<rect x="296" y="136" width="16" height="16" fill="#FAB278"/>
<rect x="312" y="184" width="16" height="16" fill="#FAB278"/>
<rect x="312" y="168" width="16" height="16" fill="#FAB278"/>
<rect x="312" y="152" width="16" height="16" fill="#FAB278"/>
<rect x="312" y="136" width="16" height="16" fill="#FAB278"/>
<rect x="328" y="184" width="16" height="16" fill="#FAB278"/>
<rect x="328" y="168" width="16" height="16" fill="#FAB278"/>
<rect x="328" y="152" width="16" height="16" fill="#FAB278"/>
<rect x="328" y="136" width="16" height="16" fill="#FAB278"/>
<rect x="312" y="120" width="16" height="16" fill="#FAB278"/>
<rect x="328" y="120" width="16" height="16" fill="#FAB278"/>
<rect x="328" y="104" width="16" height="16" fill="#FAB278"/>
<rect x="344" y="184" width="16" height="16" fill="#FAB278"/>
<rect x="344" y="168" width="16" height="16" fill="#FAB278"/>
<rect x="344" y="152" width="16" height="16" fill="#FAB278"/>
<rect x="344" y="136" width="16" height="16" fill="#FAB278"/>
<rect x="344" y="120" width="16" height="16" fill="#FAB278"/>
<rect x="344" y="104" width="16" height="16" fill="#FAB278"/>
<rect x="360" y="184" width="16" height="16" fill="#FAB278"/>
<rect x="360" y="168" width="16" height="16" fill="#FAB278"/>
<rect x="360" y="152" width="16" height="16" fill="#FAB278"/>
<rect x="360" y="136" width="16" height="16" fill="#FAB278"/>
<rect x="360" y="120" width="16" height="16" fill="#FAB278"/>
<rect x="360" y="104" width="16" height="16" fill="#FAB278"/>
<rect x="376" y="184" width="16" height="16" fill="#FAB278"/>
<rect x="376" y="168" width="16" height="16" fill="#FAB278"/>
<rect x="376" y="152" width="16" height="16" fill="#FAB278"/>
<rect x="392" y="152" width="16" height="16" fill="#FAB278"/>
<rect x="376" y="136" width="16" height="16" fill="#FAB278"/>
<rect x="376" y="120" width="16" height="16" fill="#FAB278"/>
<rect x="392" y="184" width="16" height="16" fill="#FAB278"/>
<rect x="392" y="168" width="16" height="16" fill="#FAB278"/>
<rect x="408" y="184" width="16" height="16" fill="#FAB278"/>
<rect x="408" y="168" width="16" height="16" fill="#FAB278"/>
<rect x="392" y="136" width="16" height="16" fill="#FAB278"/>
<rect x="392" y="120" width="16" height="16" fill="#FAB278"/>
<rect x="376" y="104" width="16" height="16" fill="#FAB278"/>
<rect x="344" y="88" width="16" height="16" fill="#FAB278"/>
<rect x="360" y="88" width="16" height="16" fill="#FAB278"/>
<rect x="376" y="88" width="16" height="16" fill="#FAB278"/>
<rect x="360" y="72" width="16" height="16" fill="#FAB278"/>
<rect x="376" y="72" width="16" height="16" fill="#FAB278"/>
<rect x="376" y="56" width="16" height="16" fill="#FAB278"/>
<path d="M0 168H208" stroke="#646C6D" stroke-width="2"/>
<path d="M0 200H208" stroke="#646C6D" stroke-width="2"/>
<path d="M8.00012 0V208M40.0001 0V208M72.0001 0V208M104 0V208M136 0V208M168 0V208M200 0V208" stroke="#646C6D" stroke-width="2"/>
<path d="M0 136H208" stroke="#646C6D" stroke-width="2"/>
<path d="M0 104H208" stroke="#646C6D" stroke-width="2"/>
<path d="M0 72H208" stroke="#646C6D" stroke-width="2"/>
<path d="M0 40H208" stroke="#646C6D" stroke-width="2"/>
<path d="M0 8.00012H208" stroke="#646C6D" stroke-width="2"/>
<path d="M200 200V8.00012L8.00012 200H200Z" stroke="#429FAD" stroke-width="4"/>
<path d="M240 168H448" stroke="#646C6D" stroke-width="2"/>
<path d="M240 200H448" stroke="#646C6D" stroke-width="2"/>
<path d="M240 184H448" stroke="#646C6D" stroke-width="2"/>
<path d="M240 152H448" stroke="#646C6D" stroke-width="2"/>
<path d="M240 120H448" stroke="#646C6D" stroke-width="2"/>
<path d="M240 88H448" stroke="#646C6D" stroke-width="2"/>
<path d="M240 56H448" stroke="#646C6D" stroke-width="2"/>
<path d="M240 24H448" stroke="#646C6D" stroke-width="2"/>
<path d="M248 0V208M280 0V208M312 0V208M344 0V208M376 0V208M408 0V208M440 0V208" stroke="#646C6D" stroke-width="2"/>
<path d="M240 136H448" stroke="#646C6D" stroke-width="2"/>
<path d="M240 104H448" stroke="#646C6D" stroke-width="2"/>
<path d="M240 72H448" stroke="#646C6D" stroke-width="2"/>
<path d="M240 40H448" stroke="#646C6D" stroke-width="2"/>
<path d="M240 8.00012H448" stroke="#646C6D" stroke-width="2"/>
<path d="M440 200V8.00012L248 200H440Z" stroke="#429FAD" stroke-width="4"/>
<path d="M264 208V0" stroke="#646C6D" stroke-width="2"/>
<path d="M296 208V0" stroke="#646C6D" stroke-width="2"/>
<path d="M328 208V0" stroke="#646C6D" stroke-width="2"/>
<path d="M360 208V0" stroke="#646C6D" stroke-width="2"/>
<path d="M392 208V0" stroke="#646C6D" stroke-width="2"/>
<path d="M424 208V0" stroke="#646C6D" stroke-width="2"/>
<path d="M440 208V0" stroke="#646C6D" stroke-width="2"/>
<path d="M96.648 232C96.488 232 96.344 231.944 96.216 231.832C96.104 231.72 96.048 231.576 96.048 231.4V219.976L92.76 222.496C92.616 222.608 92.464 222.648 92.304 222.616C92.16 222.584 92.032 222.496 91.92 222.352L90.504 220.504C90.408 220.36 90.368 220.208 90.384 220.048C90.416 219.872 90.512 219.736 90.672 219.64L96.192 215.368C96.288 215.304 96.376 215.264 96.456 215.248C96.552 215.216 96.656 215.2 96.768 215.2H99.768C99.928 215.2 100.064 215.256 100.176 215.368C100.304 215.48 100.368 215.624 100.368 215.8V231.4C100.368 231.576 100.304 231.72 100.176 231.832C100.064 231.944 99.928 232 99.768 232H96.648Z" fill="#646C6D"/>
<path d="M102.842 232C102.698 232 102.57 231.952 102.458 231.856C102.362 231.744 102.314 231.616 102.314 231.472C102.314 231.424 102.322 231.368 102.338 231.304C102.354 231.224 102.386 231.152 102.434 231.088L106.442 225.592L102.794 220.432C102.746 220.368 102.706 220.304 102.674 220.24C102.658 220.176 102.65 220.112 102.65 220.048C102.65 219.904 102.706 219.784 102.818 219.688C102.93 219.576 103.058 219.52 103.202 219.52H106.13C106.338 219.52 106.49 219.568 106.586 219.664C106.698 219.76 106.778 219.848 106.826 219.928L109.058 223.024L111.266 219.952C111.33 219.872 111.41 219.784 111.506 219.688C111.618 219.576 111.778 219.52 111.986 219.52H114.794C114.938 219.52 115.058 219.576 115.154 219.688C115.266 219.784 115.322 219.904 115.322 220.048C115.322 220.112 115.314 220.176 115.298 220.24C115.282 220.304 115.25 220.368 115.202 220.432L111.458 225.592L115.514 231.088C115.578 231.152 115.618 231.216 115.634 231.28C115.65 231.344 115.658 231.408 115.658 231.472C115.658 231.616 115.602 231.744 115.49 231.856C115.394 231.952 115.266 232 115.106 232H112.058C111.866 232 111.722 231.96 111.626 231.88C111.53 231.784 111.45 231.696 111.386 231.616L108.962 228.328L106.514 231.616C106.45 231.68 106.37 231.76 106.274 231.856C106.178 231.952 106.026 232 105.818 232H102.842Z" fill="#646C6D"/>
<path d="M330.608 232C330.432 232 330.28 231.944 330.152 231.832C330.04 231.72 329.984 231.576 329.984 231.4V229.696C329.984 229.584 330.016 229.416 330.08 229.192C330.144 228.952 330.312 228.728 330.584 228.52L333.08 226.072C334.36 225.096 335.408 224.272 336.224 223.6C337.056 222.912 337.672 222.304 338.072 221.776C338.472 221.248 338.672 220.752 338.672 220.288C338.672 219.744 338.528 219.296 338.24 218.944C337.968 218.576 337.488 218.392 336.8 218.392C336.336 218.392 335.944 218.496 335.624 218.704C335.32 218.896 335.088 219.152 334.928 219.472C334.768 219.792 334.656 220.12 334.592 220.456C334.528 220.664 334.416 220.808 334.256 220.888C334.112 220.968 333.952 221.008 333.776 221.008H330.776C330.632 221.008 330.512 220.96 330.416 220.864C330.32 220.768 330.272 220.648 330.272 220.504C330.288 219.736 330.448 219.016 330.752 218.344C331.072 217.672 331.512 217.08 332.072 216.568C332.648 216.04 333.328 215.632 334.112 215.344C334.912 215.056 335.808 214.912 336.8 214.912C338.16 214.912 339.312 215.128 340.256 215.56C341.216 215.992 341.944 216.6 342.44 217.384C342.936 218.152 343.184 219.056 343.184 220.096C343.184 220.88 343.008 221.616 342.656 222.304C342.32 222.976 341.832 223.624 341.192 224.248C340.568 224.856 339.824 225.488 338.96 226.144L336.752 228.376H342.92C343.096 228.376 343.24 228.432 343.352 228.544C343.48 228.656 343.544 228.8 343.544 228.976V231.4C343.544 231.576 343.48 231.72 343.352 231.832C343.24 231.944 343.096 232 342.92 232H330.608Z" fill="#646C6D"/>
<path d="M345.521 232C345.377 232 345.249 231.952 345.137 231.856C345.041 231.744 344.993 231.616 344.993 231.472C344.993 231.424 345.001 231.368 345.017 231.304C345.033 231.224 345.065 231.152 345.113 231.088L349.121 225.592L345.473 220.432C345.425 220.368 345.385 220.304 345.353 220.24C345.337 220.176 345.329 220.112 345.329 220.048C345.329 219.904 345.385 219.784 345.497 219.688C345.609 219.576 345.737 219.52 345.881 219.52H348.809C349.017 219.52 349.169 219.568 349.265 219.664C349.377 219.76 349.457 219.848 349.505 219.928L351.737 223.024L353.945 219.952C354.009 219.872 354.089 219.784 354.185 219.688C354.297 219.576 354.457 219.52 354.665 219.52H357.473C357.617 219.52 357.737 219.576 357.833 219.688C357.945 219.784 358.001 219.904 358.001 220.048C358.001 220.112 357.993 220.176 357.977 220.24C357.961 220.304 357.929 220.368 357.881 220.432L354.137 225.592L358.193 231.088C358.257 231.152 358.297 231.216 358.313 231.28C358.329 231.344 358.337 231.408 358.337 231.472C358.337 231.616 358.281 231.744 358.169 231.856C358.073 231.952 357.945 232 357.785 232H354.737C354.545 232 354.401 231.96 354.305 231.88C354.209 231.784 354.129 231.696 354.065 231.616L351.641 228.328L349.193 231.616C349.129 231.68 349.049 231.76 348.953 231.856C348.857 231.952 348.705 232 348.497 232H345.521Z" fill="#646C6D"/>
</svg>
