<svg width="189" height="86" viewBox="0 0 189 86" fill="none" xmlns="http://www.w3.org/2000/svg">
<path d="M34.4053 32.6667C34.4865 32.6667 34.5667 32.6478 34.6394 32.6115C34.712 32.5752 34.7752 32.5224 34.824 32.4573C37.2592 29.2105 40.4169 26.5752 44.047 24.7601C47.6771 22.945 51.68 22.0001 55.7386 22H58.6666V62H55.7386C51.68 61.9999 47.6771 61.055 44.047 59.2399C40.4169 57.4248 37.2592 54.7895 34.824 51.5427C34.7752 51.4776 34.712 51.4249 34.6394 51.3885C34.5667 51.3522 34.4865 51.3333 34.4053 51.3333H5.3333V32.6667H34.4053Z" fill="#FAB278" stroke="#2B2D2E" stroke-width="4" stroke-linejoin="round"/>
<path d="M58.6666 62H56C51.8601 62 47.7771 61.0361 44.0743 59.1847C40.3715 57.3333 37.1505 54.6452 34.6666 51.3333V51.3333M49.3333 60.6667V23.3333V60.6667ZM26.656 42H21.3226H26.656ZM34.6666 32.6667C37.1505 29.3548 40.3715 26.6667 44.0743 24.8153C47.7771 22.9639 51.8601 22 56 22H58.6666L34.6666 32.6667Z" stroke="#2B2D2E" stroke-width="4" stroke-linecap="round" stroke-linejoin="round"/>
<path d="M189 43.5L178.952 49.1893L179.049 37.6427L189 43.5ZM70.0084 41.5L180.009 42.4244L179.992 44.4243L69.9916 43.5L70.0084 41.5Z" fill="#646C6D"/>
<path d="M187.453 25.9945L178.054 32.7029L176.944 21.2095L187.453 25.9945ZM68.9039 36.4435L178.398 25.8647L178.591 27.8554L69.0962 38.4343L68.9039 36.4435Z" fill="#646C6D"/>
<path d="M183.707 3.9703L175.334 11.9214L172.635 0.694351L183.707 3.9703ZM67.7663 30.8164L174.723 5.10184L175.19 7.04643L68.2338 32.761L67.7663 30.8164Z" fill="#646C6D"/>
<path d="M187.348 60.4335L176.76 65.0413L178.064 53.5681L187.348 60.4335ZM69.2174 46.0065L178.519 58.4239L178.293 60.4112L68.9917 47.9937L69.2174 46.0065Z" fill="#646C6D"/>
<path d="M183.465 82.7591L172.339 85.8485L175.227 74.6684L183.465 82.7591ZM68.492 52.0319L175.001 79.5403L174.501 81.4767L67.9919 53.9683L68.492 52.0319Z" fill="#646C6D"/>
</svg>
