<svg width="64" height="1036" viewBox="0 0 64 1036" fill="none" xmlns="http://www.w3.org/2000/svg">
<g clip-path="url(#clip0_117_36)">
<path d="M60.5 156L6 201L32.5 224L60.5 156Z" fill="#3DBED2" fill-opacity="0.2"/>
<path d="M42 44L1 76L55 64L42 44Z" fill="#38B5C9" fill-opacity="0.2"/>
<path d="M52 280L22 307.5L61 324L52 280Z" fill="#2DBDD3" fill-opacity="0.2"/>
<path d="M45.5 384L19 400.5L22 459.5L45.5 384Z" fill="#2DB0C5" fill-opacity="0.2"/>
<path d="M53 616L45.5 549L17 582L53 616Z" fill="#41C7DC" fill-opacity="0.2"/>
<path d="M58 500L22 459.5L45.5 549L58 500Z" fill="#4AC1D3" fill-opacity="0.2"/>
<path d="M50 733L22 676.5L5.5 784L50 733Z" fill="#41D0E6" fill-opacity="0.2"/>
<path d="M60.5 932.5L5.5 960.5L44 972L60.5 932.5Z" fill="#44C9DE" fill-opacity="0.2"/>
<path d="M44 972L24.5 1008L62.0312 1036L44 972Z" fill="#3FC7DC" fill-opacity="0.2"/>
<path d="M14 0L42 44L62 0H14Z" fill="#4DC1D3" fill-opacity="0.2"/>
<path fill-rule="evenodd" clip-rule="evenodd" d="M14 0L42 44L1 76L14 0ZM6 201L35.5 120L1 76L55 64L60.5 156L6 201ZM22 307.5L6 201L32.5 224L52 280L22 307.5ZM45.5 384L19 400.5L1 360L22 307.5L61 324L45.5 384ZM22 459.5L45.5 384L58 500L22 459.5ZM17 582L22 459.5L45.5 549L17 582ZM50 733L22 676.5L2.5 649L17 582L53 616L50 733ZM41.5 836L50 733L5.5 784L18 889.5L5.5 960.5L24.5 1008L44 972L5.5 960.5L60.5 932.5L5.5 784L41.5 836Z" fill="#9EF2FF" fill-opacity="0.2"/>
<path d="M41.5 836L5.5 784L60.5 932.5L41.5 836Z" fill="#48C6DA" fill-opacity="0.2"/>
<path d="M62.0312 1036L24.5 1008L14.0273 1036H62.0312Z" fill="#9EF2FF" fill-opacity="0.2"/>
<path d="M14 0V-0.5H13.5783L13.5072 -0.0843019L14 0ZM1 76L0.507158 75.9157L0.469795 76.1341L0.606531 76.3085L1 76ZM55 64L55.4991 63.9702L55.4912 63.8383L55.4192 63.7275L55 64ZM60.5 156L60.9623 156.19L61.0059 156.084L60.9991 155.97L60.5 156ZM6 201L5.53019 200.829L5.48664 200.948L5.50555 201.074L6 201ZM52 280L52.4899 279.9L52.4832 279.867L52.4722 279.836L52 280ZM61 324L61.4841 324.125L61.513 324.013L61.4899 323.9L61 324ZM1 360L0.535762 359.814L0.45739 360.01L0.543094 360.203L1 360ZM58 500L58.4845 500.124L58.5068 500.036L58.4971 499.946L58 500ZM53 616L53.4998 616.013L53.5007 615.978L53.4969 615.944L53 616ZM2.5 649L2.01131 648.894L1.96472 649.11L2.09213 649.289L2.5 649ZM50 733L50.4983 733.041L50.4995 733.027L50.4998 733.013L50 733ZM5.5 784L5.00579 783.924L4.99548 783.991L5.00347 784.059L5.5 784ZM60.5 932.5L60.9614 932.693L61.0199 932.553L60.9906 932.403L60.5 932.5ZM5.5 960.5L5.00757 960.413L4.98289 960.554L5.03576 960.686L5.5 960.5ZM62.0312 1036V1036.5H62.6916L62.5125 1035.86L62.0312 1036ZM62 0L62.4552 0.206901L62.7765 -0.5H62V0ZM14.0273 1036L13.559 1035.82L13.3065 1036.5H14.0273V1036ZM13.5782 0.268438L41.5782 44.2684L42.4218 43.7316L14.4218 -0.268438L13.5782 0.268438ZM41.6924 43.6058L0.692365 75.6058L1.30764 76.3942L42.3076 44.3942L41.6924 43.6058ZM1.10847 76.4881L55.1085 64.4881L54.8915 63.5119L0.891535 75.5119L1.10847 76.4881ZM54.5278 63.8356L35.0278 119.836L35.9722 120.164L55.4722 64.1644L54.5278 63.8356ZM35.0893 120.285L60.0893 156.285L60.9107 155.715L35.9107 119.715L35.0893 120.285ZM60.1817 155.614L5.68165 200.614L6.31835 201.386L60.8183 156.386L60.1817 155.614ZM5.67226 201.378L32.1723 224.378L32.8277 223.622L6.32774 200.622L5.67226 201.378ZM32.0278 224.164L51.5278 280.164L52.4722 279.836L32.9722 223.836L32.0278 224.164ZM51.6621 279.631L21.6621 307.131L22.3379 307.869L52.3379 280.369L51.6621 279.631ZM21.8052 307.96L60.8052 324.46L61.1948 323.54L22.1948 307.04L21.8052 307.96ZM60.7428 323.571L0.742752 359.571L1.25725 360.429L61.2572 324.429L60.7428 323.571ZM0.543094 360.203L18.5431 400.703L19.4569 400.297L1.45691 359.797L0.543094 360.203ZM19.2643 400.924L45.7643 384.424L45.2357 383.576L18.7357 400.076L19.2643 400.924ZM45.0226 383.851L21.5226 459.351L22.4774 459.649L45.9774 384.149L45.0226 383.851ZM21.6263 459.832L57.6263 500.332L58.3737 499.668L22.3737 459.168L21.6263 459.832ZM57.5155 499.876L45.0155 548.876L45.9845 549.124L58.4845 500.124L57.5155 499.876ZM45.0031 549.056L52.5031 616.056L53.4969 615.944L45.9969 548.944L45.0031 549.056ZM52.7265 615.581L2.22649 648.581L2.77351 649.419L53.2735 616.419L52.7265 615.581ZM2.09213 649.289L21.5921 676.789L22.4079 676.211L2.90787 648.711L2.09213 649.289ZM21.552 676.722L49.552 733.222L50.448 732.778L22.448 676.278L21.552 676.722ZM49.6233 732.671L5.12325 783.671L5.87675 784.329L50.3767 733.329L49.6233 732.671ZM5.0889 784.285L41.0889 836.285L41.9111 835.715L5.9111 783.715L5.0889 784.285ZM41.0094 836.097L60.0094 932.597L60.9906 932.403L41.9906 835.903L41.0094 836.097ZM60.2732 932.054L5.27316 960.054L5.72684 960.946L60.7268 932.946L60.2732 932.054ZM5.3569 960.979L43.8569 972.479L44.1431 971.521L5.6431 960.021L5.3569 960.979ZM43.5604 971.762L24.0604 1007.76L24.9396 1008.24L44.4396 972.238L43.5604 971.762ZM24.201 1008.4L61.7323 1036.4L62.3302 1035.6L24.799 1007.6L24.201 1008.4ZM60.9991 155.97L55.4991 63.9702L54.5009 64.0298L60.0009 156.03L60.9991 155.97ZM13.5072 -0.0843019L0.507158 75.9157L1.49284 76.0843L14.4928 0.0843019L13.5072 -0.0843019ZM41.5808 44.2725L54.5808 64.2725L55.4192 63.7275L42.4192 43.7275L41.5808 44.2725ZM35.8935 119.691L1.39347 75.6915L0.606531 76.3085L35.1065 120.309L35.8935 119.691ZM35.0302 119.829L5.53019 200.829L6.46981 201.171L35.9698 120.171L35.0302 119.829ZM32.9623 224.19L60.9623 156.19L60.0377 155.81L32.0377 223.81L32.9623 224.19ZM52.4321 279.748L6.43209 200.748L5.56791 201.252L51.5679 280.252L52.4321 279.748ZM22.4945 307.426L6.49445 200.926L5.50555 201.074L21.5055 307.574L22.4945 307.426ZM61.4899 323.9L52.4899 279.9L51.5101 280.1L60.5101 324.1L61.4899 323.9ZM1.46424 360.186L22.4642 307.686L21.5358 307.314L0.535762 359.814L1.46424 360.186ZM19.4383 400.741L61.4383 324.241L60.5617 323.759L18.5617 400.259L19.4383 400.741ZM45.9841 384.125L61.4841 324.125L60.5159 323.875L45.0159 383.875L45.9841 384.125ZM22.4994 459.475L19.4994 400.475L18.5006 400.525L21.5006 459.525L22.4994 459.475ZM58.4971 499.946L45.9971 383.946L45.0029 384.054L57.5029 500.054L58.4971 499.946ZM21.5164 459.627L45.0164 549.127L45.9836 548.873L22.4836 459.373L21.5164 459.627ZM17.3784 582.327L45.8784 549.327L45.1216 548.673L16.6216 581.673L17.3784 582.327ZM16.6567 582.364L52.6567 616.364L53.3433 615.636L17.3433 581.636L16.6567 582.364ZM17.4996 582.02L22.4996 459.52L21.5004 459.48L16.5004 581.98L17.4996 582.02ZM2.98869 649.106L17.4887 582.106L16.5113 581.894L2.01131 648.894L2.98869 649.106ZM22.445 676.728L53.445 616.228L52.555 615.772L21.555 676.272L22.445 676.728ZM50.4998 733.013L53.4998 616.013L52.5002 615.987L49.5002 732.987L50.4998 733.013ZM5.99421 784.076L22.4942 676.576L21.5058 676.424L5.00579 783.924L5.99421 784.076ZM41.9983 836.041L50.4983 733.041L49.5017 732.959L41.0017 835.959L41.9983 836.041ZM5.03113 784.174L60.0311 932.674L60.9689 932.326L5.96887 783.826L5.03113 784.174ZM44.4614 972.193L60.9614 932.693L60.0386 932.307L43.5386 971.807L44.4614 972.193ZM24.9642 1007.81L5.96424 960.314L5.03576 960.686L24.0358 1008.19L24.9642 1007.81ZM62.5125 1035.86L44.4813 971.864L43.5187 972.136L61.55 1036.14L62.5125 1035.86ZM14 0.5H62V-0.5H14V0.5ZM61.5448 -0.206901L41.5448 43.7931L42.4552 44.2069L62.4552 0.206901L61.5448 -0.206901ZM24.0317 1007.82L13.559 1035.82L14.4957 1036.18L24.9683 1008.18L24.0317 1007.82ZM14.0273 1036.5H62.0312V1035.5H14.0273V1036.5ZM5.00347 784.059L17.5035 889.559L18.4965 889.441L5.99653 783.941L5.00347 784.059ZM17.5076 889.413L5.00757 960.413L5.99243 960.587L18.4924 889.587L17.5076 889.413ZM17.6444 889.851L60.1444 932.851L60.8556 932.149L18.3556 889.149L17.6444 889.851Z" fill="#429FAD"/>
</g>
<defs>
<clipPath id="clip0_117_36">
<rect width="64" height="1036" fill="white"/>
</clipPath>
</defs>
</svg>
